<svg width="200" height="200" viewBox="0 0 200 200" fill="none" xmlns="http://www.w3.org/2000/svg">
<g clip-path="url(#clip0_1593_34351)">
<path d="M10 1H190C194.971 1 199 5.02944 199 10V190C199 194.971 194.971 199 190 199H10C5.02944 199 1 194.971 1 190V10C1 5.02944 5.02944 1 10 1Z" fill="white" stroke="#25215B" stroke-width="2"/>
<path d="M76.0684 14H69.1719V20.8966H76.0684V14Z" fill="black"/>
<path d="M103.654 14H96.7578V20.8966H103.654V14Z" fill="black"/>
<path d="M131.24 14H124.344V20.8966H131.24V14Z" fill="black"/>
<path d="M76.0684 20.8965H69.1719V27.793H76.0684V20.8965Z" fill="black"/>
<path d="M82.9669 20.8965H76.0703V27.793H82.9669V20.8965Z" fill="black"/>
<path d="M110.553 27.793H103.656V34.6895H110.553V27.793Z" fill="black"/>
<path d="M117.447 27.793H110.551V34.6895H117.447V27.793Z" fill="black"/>
<path d="M76.0684 34.6895H69.1719V41.586H76.0684V34.6895Z" fill="black"/>
<path d="M89.8614 34.6895H82.9648V41.586H89.8614V34.6895Z" fill="black"/>
<path d="M96.7598 34.6895H89.8633V41.586H96.7598V34.6895Z" fill="black"/>
<path d="M110.553 34.6895H103.656V41.586H110.553V34.6895Z" fill="black"/>
<path d="M110.553 41.5859H103.656V48.4825H110.553V41.5859Z" fill="black"/>
<path d="M117.447 41.5859H110.551V48.4825H117.447V41.5859Z" fill="black"/>
<path d="M124.346 41.5859H117.449V48.4825H124.346V41.5859Z" fill="black"/>
<path d="M131.24 41.5859H124.344V48.4825H131.24V41.5859Z" fill="black"/>
<path d="M96.7598 48.4824H89.8633V55.379H96.7598V48.4824Z" fill="black"/>
<path d="M117.447 48.4824H110.551V55.379H117.447V48.4824Z" fill="black"/>
<path d="M76.0684 55.3789H69.1719V62.2755H76.0684V55.3789Z" fill="black"/>
<path d="M89.8614 55.3789H82.9648V62.2755H89.8614V55.3789Z" fill="black"/>
<path d="M103.654 55.3789H96.7578V62.2755H103.654V55.3789Z" fill="black"/>
<path d="M117.447 55.3789H110.551V62.2755H117.447V55.3789Z" fill="black"/>
<path d="M131.24 55.3789H124.344V62.2755H131.24V55.3789Z" fill="black"/>
<path d="M76.0684 62.2754H69.1719V69.1719H76.0684V62.2754Z" fill="black"/>
<path d="M89.8614 62.2754H82.9648V69.1719H89.8614V62.2754Z" fill="black"/>
<path d="M103.654 62.2754H96.7578V69.1719H103.654V62.2754Z" fill="black"/>
<path d="M117.447 62.2754H110.551V69.1719H117.447V62.2754Z" fill="black"/>
<path d="M124.346 62.2754H117.449V69.1719H124.346V62.2754Z" fill="black"/>
<path d="M131.24 62.2754H124.344V69.1719H131.24V62.2754Z" fill="black"/>
<path d="M20.8966 69.1719H14V76.0684H20.8966V69.1719Z" fill="black"/>
<path d="M34.6895 69.1719H27.793V76.0684H34.6895V69.1719Z" fill="black"/>
<path d="M41.588 69.1719H34.6914V76.0684H41.588V69.1719Z" fill="black"/>
<path d="M55.3809 69.1719H48.4844V76.0684H55.3809V69.1719Z" fill="black"/>
<path d="M62.2755 69.1719H55.3789V76.0684H62.2755V69.1719Z" fill="black"/>
<path d="M69.1739 69.1719H62.2773V76.0684H69.1739V69.1719Z" fill="black"/>
<path d="M82.9669 69.1719H76.0703V76.0684H82.9669V69.1719Z" fill="black"/>
<path d="M96.7598 69.1719H89.8633V76.0684H96.7598V69.1719Z" fill="black"/>
<path d="M103.654 69.1719H96.7578V76.0684H103.654V69.1719Z" fill="black"/>
<path d="M117.447 69.1719H110.551V76.0684H117.447V69.1719Z" fill="black"/>
<path d="M131.24 69.1719H124.344V76.0684H131.24V69.1719Z" fill="black"/>
<path d="M145.033 69.1719H138.137V76.0684H145.033V69.1719Z" fill="black"/>
<path d="M165.725 69.1719H158.828V76.0684H165.725V69.1719Z" fill="black"/>
<path d="M179.518 69.1719H172.621V76.0684H179.518V69.1719Z" fill="black"/>
<path d="M186.412 69.1719H179.516V76.0684H186.412V69.1719Z" fill="black"/>
<path d="M20.8966 76.0684H14V82.9649H20.8966V76.0684Z" fill="black"/>
<path d="M27.795 76.0684H20.8984V82.9649H27.795V76.0684Z" fill="black"/>
<path d="M34.6895 76.0684H27.793V82.9649H34.6895V76.0684Z" fill="black"/>
<path d="M41.588 76.0684H34.6914V82.9649H41.588V76.0684Z" fill="black"/>
<path d="M96.7598 76.0684H89.8633V82.9649H96.7598V76.0684Z" fill="black"/>
<path d="M131.24 76.0684H124.344V82.9649H131.24V76.0684Z" fill="black"/>
<path d="M138.139 76.0684H131.242V82.9649H138.139V76.0684Z" fill="black"/>
<path d="M151.932 76.0684H145.035V82.9649H151.932V76.0684Z" fill="black"/>
<path d="M179.518 76.0684H172.621V82.9649H179.518V76.0684Z" fill="black"/>
<path d="M41.588 82.9648H34.6914V89.8614H41.588V82.9648Z" fill="black"/>
<path d="M55.3809 82.9648H48.4844V89.8614H55.3809V82.9648Z" fill="black"/>
<path d="M62.2755 82.9648H55.3789V89.8614H62.2755V82.9648Z" fill="black"/>
<path d="M76.0684 82.9648H69.1719V89.8614H76.0684V82.9648Z" fill="black"/>
<path d="M82.9669 82.9648H76.0703V89.8614H82.9669V82.9648Z" fill="black"/>
<path d="M89.8614 82.9648H82.9648V89.8614H89.8614V82.9648Z" fill="black"/>
<path d="M96.7598 82.9648H89.8633V89.8614H96.7598V82.9648Z" fill="black"/>
<path d="M103.654 82.9648H96.7578V89.8614H103.654V82.9648Z" fill="black"/>
<path d="M110.553 82.9648H103.656V89.8614H110.553V82.9648Z" fill="black"/>
<path d="M117.447 82.9648H110.551V89.8614H117.447V82.9648Z" fill="black"/>
<path d="M131.24 82.9648H124.344V89.8614H131.24V82.9648Z" fill="black"/>
<path d="M151.932 82.9648H145.035V89.8614H151.932V82.9648Z" fill="black"/>
<path d="M20.8966 89.8613H14V96.7579H20.8966V89.8613Z" fill="black"/>
<path d="M89.8614 89.8613H82.9648V96.7579H89.8614V89.8613Z" fill="black"/>
<path d="M103.654 89.8613H96.7578V96.7579H103.654V89.8613Z" fill="black"/>
<path d="M110.553 89.8613H103.656V96.7579H110.553V89.8613Z" fill="black"/>
<path d="M117.447 89.8613H110.551V96.7579H117.447V89.8613Z" fill="black"/>
<path d="M124.346 89.8613H117.449V96.7579H124.346V89.8613Z" fill="black"/>
<path d="M138.139 89.8613H131.242V96.7579H138.139V89.8613Z" fill="black"/>
<path d="M145.033 89.8613H138.137V96.7579H145.033V89.8613Z" fill="black"/>
<path d="M165.725 89.8613H158.828V96.7579H165.725V89.8613Z" fill="black"/>
<path d="M172.619 89.8613H165.723V96.7579H172.619V89.8613Z" fill="black"/>
<path d="M27.795 96.7578H20.8984V103.654H27.795V96.7578Z" fill="black"/>
<path d="M34.6895 96.7578H27.793V103.654H34.6895V96.7578Z" fill="black"/>
<path d="M41.588 96.7578H34.6914V103.654H41.588V96.7578Z" fill="black"/>
<path d="M62.2755 96.7578H55.3789V103.654H62.2755V96.7578Z" fill="black"/>
<path d="M82.9669 96.7578H76.0703V103.654H82.9669V96.7578Z" fill="black"/>
<path d="M89.8614 96.7578H82.9648V103.654H89.8614V96.7578Z" fill="black"/>
<path d="M110.553 96.7578H103.656V103.654H110.553V96.7578Z" fill="black"/>
<path d="M117.447 96.7578H110.551V103.654H117.447V96.7578Z" fill="black"/>
<path d="M138.139 96.7578H131.242V103.654H138.139V96.7578Z" fill="black"/>
<path d="M145.033 96.7578H138.137V103.654H145.033V96.7578Z" fill="black"/>
<path d="M151.932 96.7578H145.035V103.654H151.932V96.7578Z" fill="black"/>
<path d="M158.826 96.7578H151.93V103.654H158.826V96.7578Z" fill="black"/>
<path d="M172.619 96.7578H165.723V103.654H172.619V96.7578Z" fill="black"/>
<path d="M179.518 96.7578H172.621V103.654H179.518V96.7578Z" fill="black"/>
<path d="M186.412 96.7578H179.516V103.654H186.412V96.7578Z" fill="black"/>
<path d="M55.3809 103.654H48.4844V110.551H55.3809V103.654Z" fill="black"/>
<path d="M69.1739 103.654H62.2773V110.551H69.1739V103.654Z" fill="black"/>
<path d="M76.0684 103.654H69.1719V110.551H76.0684V103.654Z" fill="black"/>
<path d="M82.9669 103.654H76.0703V110.551H82.9669V103.654Z" fill="black"/>
<path d="M96.7598 103.654H89.8633V110.551H96.7598V103.654Z" fill="black"/>
<path d="M110.553 103.654H103.656V110.551H110.553V103.654Z" fill="black"/>
<path d="M117.447 103.654H110.551V110.551H117.447V103.654Z" fill="black"/>
<path d="M124.346 103.654H117.449V110.551H124.346V103.654Z" fill="black"/>
<path d="M131.24 103.654H124.344V110.551H131.24V103.654Z" fill="black"/>
<path d="M145.033 103.654H138.137V110.551H145.033V103.654Z" fill="black"/>
<path d="M151.932 103.654H145.035V110.551H151.932V103.654Z" fill="black"/>
<path d="M158.826 103.654H151.93V110.551H158.826V103.654Z" fill="black"/>
<path d="M186.412 103.654H179.516V110.551H186.412V103.654Z" fill="black"/>
<path d="M27.795 110.551H20.8984V117.447H27.795V110.551Z" fill="black"/>
<path d="M34.6895 110.551H27.793V117.447H34.6895V110.551Z" fill="black"/>
<path d="M48.4825 110.551H41.5859V117.447H48.4825V110.551Z" fill="black"/>
<path d="M55.3809 110.551H48.4844V117.447H55.3809V110.551Z" fill="black"/>
<path d="M62.2755 110.551H55.3789V117.447H62.2755V110.551Z" fill="black"/>
<path d="M69.1739 110.551H62.2773V117.447H69.1739V110.551Z" fill="black"/>
<path d="M89.8614 110.551H82.9648V117.447H89.8614V110.551Z" fill="black"/>
<path d="M103.654 110.551H96.7578V117.447H103.654V110.551Z" fill="black"/>
<path d="M117.447 110.551H110.551V117.447H117.447V110.551Z" fill="black"/>
<path d="M138.139 110.551H131.242V117.447H138.139V110.551Z" fill="black"/>
<path d="M158.826 110.551H151.93V117.447H158.826V110.551Z" fill="black"/>
<path d="M172.619 110.551H165.723V117.447H172.619V110.551Z" fill="black"/>
<path d="M179.518 110.551H172.621V117.447H179.518V110.551Z" fill="black"/>
<path d="M20.8966 117.449H14V124.346H20.8966V117.449Z" fill="black"/>
<path d="M41.588 117.449H34.6914V124.346H41.588V117.449Z" fill="black"/>
<path d="M55.3809 117.449H48.4844V124.346H55.3809V117.449Z" fill="black"/>
<path d="M69.1739 117.449H62.2773V124.346H69.1739V117.449Z" fill="black"/>
<path d="M82.9669 117.449H76.0703V124.346H82.9669V117.449Z" fill="black"/>
<path d="M103.654 117.449H96.7578V124.346H103.654V117.449Z" fill="black"/>
<path d="M117.447 117.449H110.551V124.346H117.447V117.449Z" fill="black"/>
<path d="M131.24 117.449H124.344V124.346H131.24V117.449Z" fill="black"/>
<path d="M138.139 117.449H131.242V124.346H138.139V117.449Z" fill="black"/>
<path d="M151.932 117.449H145.035V124.346H151.932V117.449Z" fill="black"/>
<path d="M158.826 117.449H151.93V124.346H158.826V117.449Z" fill="black"/>
<path d="M186.412 117.449H179.516V124.346H186.412V117.449Z" fill="black"/>
<path d="M34.6895 124.346H27.793V131.242H34.6895V124.346Z" fill="black"/>
<path d="M41.588 124.346H34.6914V131.242H41.588V124.346Z" fill="black"/>
<path d="M62.2755 124.346H55.3789V131.242H62.2755V124.346Z" fill="black"/>
<path d="M69.1739 124.346H62.2773V131.242H69.1739V124.346Z" fill="black"/>
<path d="M76.0684 124.346H69.1719V131.242H76.0684V124.346Z" fill="black"/>
<path d="M89.8614 124.346H82.9648V131.242H89.8614V124.346Z" fill="black"/>
<path d="M96.7598 124.346H89.8633V131.242H96.7598V124.346Z" fill="black"/>
<path d="M110.553 124.346H103.656V131.242H110.553V124.346Z" fill="black"/>
<path d="M124.346 124.346H117.449V131.242H124.346V124.346Z" fill="black"/>
<path d="M131.24 124.346H124.344V131.242H131.24V124.346Z" fill="black"/>
<path d="M138.139 124.346H131.242V131.242H138.139V124.346Z" fill="black"/>
<path d="M145.033 124.346H138.137V131.242H145.033V124.346Z" fill="black"/>
<path d="M151.932 124.346H145.035V131.242H151.932V124.346Z" fill="black"/>
<path d="M158.826 124.346H151.93V131.242H158.826V124.346Z" fill="black"/>
<path d="M165.725 124.346H158.828V131.242H165.725V124.346Z" fill="black"/>
<path d="M172.619 124.346H165.723V131.242H172.619V124.346Z" fill="black"/>
<path d="M179.518 124.346H172.621V131.242H179.518V124.346Z" fill="black"/>
<path d="M186.412 124.346H179.516V131.242H186.412V124.346Z" fill="black"/>
<path d="M76.0684 131.242H69.1719V138.139H76.0684V131.242Z" fill="black"/>
<path d="M82.9669 131.242H76.0703V138.139H82.9669V131.242Z" fill="black"/>
<path d="M89.8614 131.242H82.9648V138.139H89.8614V131.242Z" fill="black"/>
<path d="M103.654 131.242H96.7578V138.139H103.654V131.242Z" fill="black"/>
<path d="M131.24 131.242H124.344V138.139H131.24V131.242Z" fill="black"/>
<path d="M158.826 131.242H151.93V138.139H158.826V131.242Z" fill="black"/>
<path d="M172.619 131.242H165.723V138.139H172.619V131.242Z" fill="black"/>
<path d="M186.412 131.242H179.516V138.139H186.412V131.242Z" fill="black"/>
<path d="M76.0684 138.139H69.1719V145.035H76.0684V138.139Z" fill="black"/>
<path d="M82.9669 138.139H76.0703V145.035H82.9669V138.139Z" fill="black"/>
<path d="M96.7598 138.139H89.8633V145.035H96.7598V138.139Z" fill="black"/>
<path d="M103.654 138.139H96.7578V145.035H103.654V138.139Z" fill="black"/>
<path d="M117.447 138.139H110.551V145.035H117.447V138.139Z" fill="black"/>
<path d="M131.24 138.139H124.344V145.035H131.24V138.139Z" fill="black"/>
<path d="M145.033 138.139H138.137V145.035H145.033V138.139Z" fill="black"/>
<path d="M158.826 138.139H151.93V145.035H158.826V138.139Z" fill="black"/>
<path d="M172.619 138.139H165.723V145.035H172.619V138.139Z" fill="black"/>
<path d="M179.518 138.139H172.621V145.035H179.518V138.139Z" fill="black"/>
<path d="M186.412 138.139H179.516V145.035H186.412V138.139Z" fill="black"/>
<path d="M76.0684 145.035H69.1719V151.932H76.0684V145.035Z" fill="black"/>
<path d="M89.8614 145.035H82.9648V151.932H89.8614V145.035Z" fill="black"/>
<path d="M103.654 145.035H96.7578V151.932H103.654V145.035Z" fill="black"/>
<path d="M124.346 145.035H117.449V151.932H124.346V145.035Z" fill="black"/>
<path d="M131.24 145.035H124.344V151.932H131.24V145.035Z" fill="black"/>
<path d="M158.826 145.035H151.93V151.932H158.826V145.035Z" fill="black"/>
<path d="M179.518 145.035H172.621V151.932H179.518V145.035Z" fill="black"/>
<path d="M186.412 145.035H179.516V151.932H186.412V145.035Z" fill="black"/>
<path d="M82.9669 151.932H76.0703V158.828H82.9669V151.932Z" fill="black"/>
<path d="M89.8614 151.932H82.9648V158.828H89.8614V151.932Z" fill="black"/>
<path d="M96.7598 151.932H89.8633V158.828H96.7598V151.932Z" fill="black"/>
<path d="M103.654 151.932H96.7578V158.828H103.654V151.932Z" fill="black"/>
<path d="M110.553 151.932H103.656V158.828H110.553V151.932Z" fill="black"/>
<path d="M131.24 151.932H124.344V158.828H131.24V151.932Z" fill="black"/>
<path d="M138.139 151.932H131.242V158.828H138.139V151.932Z" fill="black"/>
<path d="M145.033 151.932H138.137V158.828H145.033V151.932Z" fill="black"/>
<path d="M151.932 151.932H145.035V158.828H151.932V151.932Z" fill="black"/>
<path d="M158.826 151.932H151.93V158.828H158.826V151.932Z" fill="black"/>
<path d="M165.725 151.932H158.828V158.828H165.725V151.932Z" fill="black"/>
<path d="M179.518 151.932H172.621V158.828H179.518V151.932Z" fill="black"/>
<path d="M76.0684 158.828H69.1719V165.725H76.0684V158.828Z" fill="black"/>
<path d="M89.8614 158.828H82.9648V165.725H89.8614V158.828Z" fill="black"/>
<path d="M103.654 158.828H96.7578V165.725H103.654V158.828Z" fill="black"/>
<path d="M110.553 158.828H103.656V165.725H110.553V158.828Z" fill="black"/>
<path d="M131.24 158.828H124.344V165.725H131.24V158.828Z" fill="black"/>
<path d="M145.033 158.828H138.137V165.725H145.033V158.828Z" fill="black"/>
<path d="M158.826 158.828H151.93V165.725H158.826V158.828Z" fill="black"/>
<path d="M165.725 158.828H158.828V165.725H165.725V158.828Z" fill="black"/>
<path d="M172.619 158.828H165.723V165.725H172.619V158.828Z" fill="black"/>
<path d="M179.518 158.828H172.621V165.725H179.518V158.828Z" fill="black"/>
<path d="M186.412 158.828H179.516V165.725H186.412V158.828Z" fill="black"/>
<path d="M76.0684 165.725H69.1719V172.621H76.0684V165.725Z" fill="black"/>
<path d="M82.9669 165.725H76.0703V172.621H82.9669V165.725Z" fill="black"/>
<path d="M96.7598 165.725H89.8633V172.621H96.7598V165.725Z" fill="black"/>
<path d="M103.654 165.725H96.7578V172.621H103.654V165.725Z" fill="black"/>
<path d="M110.553 165.725H103.656V172.621H110.553V165.725Z" fill="black"/>
<path d="M124.346 165.725H117.449V172.621H124.346V165.725Z" fill="black"/>
<path d="M138.139 165.725H131.242V172.621H138.139V165.725Z" fill="black"/>
<path d="M145.033 165.725H138.137V172.621H145.033V165.725Z" fill="black"/>
<path d="M158.826 165.725H151.93V172.621H158.826V165.725Z" fill="black"/>
<path d="M172.619 165.725H165.723V172.621H172.619V165.725Z" fill="black"/>
<path d="M179.518 165.725H172.621V172.621H179.518V165.725Z" fill="black"/>
<path d="M138.139 172.621H131.242V179.518H138.139V172.621Z" fill="black"/>
<path d="M145.033 172.621H138.137V179.518H145.033V172.621Z" fill="black"/>
<path d="M158.826 172.621H151.93V179.518H158.826V172.621Z" fill="black"/>
<path d="M172.619 172.621H165.723V179.518H172.619V172.621Z" fill="black"/>
<path d="M76.0684 179.518H69.1719V186.414H76.0684V179.518Z" fill="black"/>
<path d="M103.654 179.518H96.7578V186.414H103.654V179.518Z" fill="black"/>
<path d="M117.447 179.518H110.551V186.414H117.447V179.518Z" fill="black"/>
<path d="M151.932 179.518H145.035V186.414H151.932V179.518Z" fill="black"/>
<path d="M158.826 179.518H151.93V186.414H158.826V179.518Z" fill="black"/>
<path d="M165.725 179.518H158.828V186.414H165.725V179.518Z" fill="black"/>
<path d="M172.619 179.518H165.723V186.414H172.619V179.518Z" fill="black"/>
<path d="M179.518 179.518H172.621V186.414H179.518V179.518Z" fill="black"/>
<path d="M186.412 179.518H179.516V186.414H186.412V179.518Z" fill="black"/>
<path d="M55.0345 14H21.2414H14V21.2414V55.0345V62.2759H21.2414H55.0345H62.2759V55.0345V21.2414V14H55.0345ZM55.0345 55.0345H21.2414V21.2414H55.0345V55.0345Z" fill="black"/>
<path d="M179.171 14H145.378H138.137V21.2414V55.0345V62.2759H145.378H179.171H186.413V55.0345V21.2414V14H179.171ZM179.171 55.0345H145.378V21.2414H179.171V55.0345Z" fill="black"/>
<path d="M55.0345 138.139H21.2414H14V145.38V179.173V186.415H21.2414H55.0345H62.2759V179.173V145.38V138.139H55.0345ZM55.0345 179.173H21.2414V145.38H55.0345V179.173Z" fill="black"/>
<path d="M48.4826 27.793H27.793V48.4826H48.4826V27.793Z" fill="black"/>
<path d="M172.619 27.793H151.93V48.4826H172.619V27.793Z" fill="black"/>
<path d="M48.4826 151.932H27.793V172.621H48.4826V151.932Z" fill="black"/>
<rect x="75" y="75" width="50" height="50" rx="25" fill="white" stroke="black" stroke-width="2"/>
<path d="M99.5673 83.0001C98.7897 83.0009 98.014 83.0765 97.251 83.2259C99.3616 83.3064 101.41 83.9601 103.178 85.1169C104.945 86.2737 106.364 87.8899 107.282 89.792C107.41 90.0474 107.525 90.3095 107.625 90.5772C107.869 90.6282 108.12 90.6301 108.365 90.5829C108.609 90.5358 108.841 90.4404 109.048 90.3024C109.287 90.1095 109.477 89.8634 109.603 89.5839C109.729 89.3044 109.788 88.9992 109.775 88.6928C108.737 86.9492 107.262 85.5068 105.496 84.5083C103.73 83.5099 101.734 82.99 99.7047 83.0001H99.5673Z" fill="url(#paint0_linear_1593_34351)"/>
<path d="M109.048 90.2542C108.841 90.3921 108.609 90.4875 108.364 90.5347C108.12 90.5819 107.869 90.5799 107.625 90.529C108.395 92.4574 108.634 94.5567 108.318 96.6088C108.002 98.6609 107.143 100.591 105.829 102.199L98.2422 111.533L99.6457 113.241L108.793 101.973C110.2 100.255 111.085 98.1691 111.342 95.9633C111.6 93.7574 111.219 91.524 110.246 89.5279C110.108 89.2234 109.951 88.9283 109.775 88.6445C109.788 88.9509 109.729 89.2561 109.603 89.5356C109.477 89.8152 109.287 90.0613 109.048 90.2542Z" fill="url(#paint1_linear_1593_34351)"/>
<path d="M106.33 91.8538C106.842 93.0361 107.016 94.3375 106.832 95.613C106.649 96.8884 106.114 98.0878 105.289 99.0775L96.7012 109.648L98.2421 111.533L105.829 102.199C107.143 100.591 108.002 98.6607 108.318 96.6086C108.634 94.5564 108.395 92.4572 107.625 90.5288C106.825 90.3616 106.08 89.9972 105.456 89.4688C105.851 90.2218 106.145 91.0237 106.33 91.8538Z" fill="url(#paint2_linear_1593_34351)"/>
<path d="M93.6182 84.5597C92.959 84.944 92.3407 85.3946 91.7729 85.9043C92.6935 85.288 93.7175 84.8425 94.7959 84.5891C95.5097 84.4186 96.241 84.333 96.9748 84.3339C98.7175 84.338 100.426 84.8184 101.915 85.7232C103.405 86.6279 104.619 87.9225 105.425 89.4671C106.049 89.9956 106.795 90.3599 107.595 90.5271C107.494 90.2594 107.38 89.9973 107.251 89.7419C106.335 87.8441 104.921 86.2307 103.159 85.0742C101.398 83.9177 99.3552 83.2615 97.2497 83.1758C95.9702 83.4303 94.7426 83.8981 93.6182 84.5597Z" fill="url(#paint3_linear_1593_34351)"/>
<path d="M91.9015 85.9047C90.761 86.9193 89.8336 88.1503 89.1729 89.5264C88.1996 91.5231 87.82 93.7573 88.0793 95.9634C88.3385 98.1696 89.2257 100.255 90.6353 101.972L96.328 109.009C96.839 108.366 97.2101 107.624 97.4174 106.83L93.3737 101.844C92.1541 100.353 91.3867 98.5441 91.1624 96.6309C90.938 94.7178 91.266 92.7804 92.1076 91.0477C92.683 89.8537 93.4943 88.7886 94.4926 87.9167C95.8317 86.9779 97.4213 86.4617 99.0565 86.4347C100.39 86.4365 101.703 86.7595 102.885 87.3762C104.068 87.9929 105.084 88.8853 105.848 89.9779C105.285 88.7156 104.454 87.591 103.412 86.6821C102.371 85.7732 101.144 85.1017 99.8174 84.7142C98.4905 84.3267 97.0953 84.2324 95.7284 84.438C94.3615 84.6436 93.0556 85.144 91.9015 85.9047Z" fill="url(#paint4_linear_1593_34351)"/>
<path d="M94.394 87.681C93.3931 88.5889 92.5824 89.6864 92.009 90.9101C90.8307 93.3997 90.6618 96.2488 91.5379 98.8601C91.9237 100.024 92.5118 101.11 93.2751 102.07L97.3188 107.213C97.5833 106.134 97.5459 105.003 97.2109 103.944C96.9946 103.276 96.6624 102.652 96.2294 102.099L94.0112 99.2822C93.1443 98.2049 92.5989 96.905 92.4374 95.5318C92.2759 94.1585 92.5051 92.7675 93.0984 91.5186C93.6617 90.2793 94.5686 89.2277 95.7116 88.4883C96.8545 87.7489 98.1856 87.3529 99.5468 87.3473H99.7726C101.178 87.3518 102.527 87.9046 103.532 88.8882C104.492 89.711 105.394 90.5998 106.231 91.548C106.259 91.5822 106.286 91.6183 106.309 91.656C106.171 91.0612 105.981 90.4798 105.74 89.9188C104.993 88.7983 103.982 87.8785 102.796 87.2402C101.61 86.6018 100.285 86.2645 98.9383 86.2578C97.3151 86.266 95.7319 86.7618 94.394 87.681Z" fill="url(#paint5_linear_1593_34351)"/>
<path d="M100.45 113.81L100.371 113.908L100.862 114.507L103.306 117.452L103.865 116.765L103.934 116.676L102.364 114.713L101.873 114.115L101.951 114.007L104.101 111.347C103.862 110.977 103.567 110.646 103.227 110.365L100.45 113.81Z" fill="url(#paint6_linear_1593_34351)"/>
<path d="M101.952 114.084L101.873 114.192L102.364 114.79L103.934 116.753C104.229 116.365 104.457 115.93 104.611 115.468C104.99 114.451 104.99 113.333 104.611 112.317C104.495 112.001 104.34 111.701 104.15 111.424L101.952 114.084Z" fill="url(#paint7_linear_1593_34351)"/>
</g>
<defs>
<linearGradient id="paint0_linear_1593_34351" x1="101.972" y1="87.9468" x2="105.76" y2="84.1681" gradientUnits="userSpaceOnUse">
<stop stop-color="#00FFCC"/>
<stop offset="1" stop-color="#009174"/>
</linearGradient>
<linearGradient id="paint1_linear_1593_34351" x1="98.2422" y1="100.943" x2="111.424" y2="100.943" gradientUnits="userSpaceOnUse">
<stop stop-color="#00FFCC"/>
<stop offset="1" stop-color="#009174"/>
</linearGradient>
<linearGradient id="paint2_linear_1593_34351" x1="96.7012" y1="100.501" x2="108.459" y2="100.501" gradientUnits="userSpaceOnUse">
<stop stop-color="#00FFCC"/>
<stop offset="1" stop-color="#009174"/>
</linearGradient>
<linearGradient id="paint3_linear_1593_34351" x1="99.6936" y1="90.5271" x2="99.6936" y2="83.1758" gradientUnits="userSpaceOnUse">
<stop stop-color="#009174"/>
<stop offset="1" stop-color="#00FFCC"/>
</linearGradient>
<linearGradient id="paint4_linear_1593_34351" x1="96.9267" y1="108.989" x2="96.9267" y2="84.3343" gradientUnits="userSpaceOnUse">
<stop stop-color="#FFBF00"/>
<stop offset="1" stop-color="#CC059C"/>
</linearGradient>
<linearGradient id="paint5_linear_1593_34351" x1="92.5684" y1="89.4967" x2="103.806" y2="100.725" gradientUnits="userSpaceOnUse">
<stop stop-color="#FFBF00"/>
<stop offset="1" stop-color="#E85500"/>
</linearGradient>
<linearGradient id="paint6_linear_1593_34351" x1="100.371" y1="113.967" x2="104.101" y2="113.967" gradientUnits="userSpaceOnUse">
<stop stop-color="#FFBF00"/>
<stop offset="1" stop-color="#CC059C"/>
</linearGradient>
<linearGradient id="paint7_linear_1593_34351" x1="105.141" y1="114.722" x2="102.462" y2="113.171" gradientUnits="userSpaceOnUse">
<stop stop-color="#FFBF00"/>
<stop offset="1" stop-color="#E85500"/>
</linearGradient>
<clipPath id="clip0_1593_34351">
<rect width="200" height="200" fill="white"/>
</clipPath>
</defs>
</svg>
