<svg width="90" height="90" viewBox="0 0 90 90" fill="none" xmlns="http://www.w3.org/2000/svg">
<path d="M45 40.0001C50.5228 40.0001 55 35.5229 55 30.0001C55 24.4772 50.5228 20.0001 45 20.0001C39.4772 20.0001 35 24.4772 35 30.0001C35 35.5229 39.4772 40.0001 45 40.0001Z" stroke="white" stroke-width="2" stroke-linecap="round" stroke-linejoin="round"/>
<path d="M9.02071 57.2V67H10.6727V57.2H9.02071ZM10.0007 58.656H11.9747C12.544 58.656 13.0014 58.7913 13.3467 59.062C13.692 59.3233 13.8647 59.7153 13.8647 60.238C13.8647 60.7607 13.692 61.1573 13.3467 61.428C13.0014 61.6987 12.544 61.834 11.9747 61.834H10.0007V63.29H11.9747C12.684 63.29 13.3 63.1687 13.8227 62.926C14.3547 62.674 14.7654 62.3193 15.0547 61.862C15.344 61.4047 15.4887 60.8633 15.4887 60.238C15.4887 59.6127 15.344 59.076 15.0547 58.628C14.7654 58.1707 14.3547 57.8207 13.8227 57.578C13.3 57.326 12.684 57.2 11.9747 57.2H10.0007V58.656ZM18.213 60.56H16.715V67H18.213V60.56ZM20.131 62.17L20.859 60.896C20.719 60.7187 20.5464 60.5973 20.341 60.532C20.1357 60.4573 19.9164 60.42 19.683 60.42C19.3564 60.42 19.039 60.5367 18.731 60.77C18.4324 61.0033 18.185 61.3207 17.989 61.722C17.8024 62.114 17.709 62.5667 17.709 63.08L18.213 63.374C18.213 63.066 18.2457 62.8 18.311 62.576C18.3857 62.3427 18.5024 62.1607 18.661 62.03C18.8197 61.8993 19.025 61.834 19.277 61.834C19.4637 61.834 19.6177 61.862 19.739 61.918C19.8604 61.974 19.991 62.058 20.131 62.17ZM21.2016 63.78C21.2016 64.4333 21.3509 65.0167 21.6496 65.53C21.9576 66.034 22.3729 66.4307 22.8956 66.72C23.4183 67 24.0109 67.14 24.6736 67.14C25.3363 67.14 25.9243 67 26.4376 66.72C26.9603 66.4307 27.3756 66.034 27.6836 65.53C27.9916 65.0167 28.1456 64.4333 28.1456 63.78C28.1456 63.1173 27.9916 62.534 27.6836 62.03C27.3756 61.526 26.9603 61.134 26.4376 60.854C25.9243 60.5647 25.3363 60.42 24.6736 60.42C24.0109 60.42 23.4183 60.5647 22.8956 60.854C22.3729 61.134 21.9576 61.526 21.6496 62.03C21.3509 62.534 21.2016 63.1173 21.2016 63.78ZM22.7556 63.78C22.7556 63.3787 22.8396 63.024 23.0076 62.716C23.1756 62.408 23.4043 62.17 23.6936 62.002C23.9829 61.834 24.3096 61.75 24.6736 61.75C25.0283 61.75 25.3503 61.834 25.6396 62.002C25.9383 62.17 26.1716 62.408 26.3396 62.716C26.5076 63.024 26.5916 63.3787 26.5916 63.78C26.5916 64.1813 26.5076 64.536 26.3396 64.844C26.1716 65.1427 25.9383 65.3807 25.6396 65.558C25.3503 65.726 25.0283 65.81 24.6736 65.81C24.3096 65.81 23.9829 65.726 23.6936 65.558C23.4043 65.3807 23.1756 65.1427 23.0076 64.844C22.8396 64.536 22.7556 64.1813 22.7556 63.78ZM29.0483 60.56V61.89H32.7443V60.56H29.0483ZM32.5763 57.704L33.2903 56.528C33.2156 56.4347 33.1083 56.3413 32.9683 56.248C32.8376 56.1547 32.6789 56.0753 32.4923 56.01C32.3056 55.9447 32.0863 55.912 31.8343 55.912C31.3863 55.912 31.0083 56.0007 30.7003 56.178C30.3923 56.346 30.1543 56.598 29.9863 56.934C29.8276 57.2607 29.7483 57.676 29.7483 58.18V67H31.2323V58.474C31.2323 58.2033 31.2603 57.984 31.3163 57.816C31.3723 57.648 31.4469 57.5267 31.5403 57.452C31.6429 57.3773 31.7643 57.34 31.9043 57.34C32.0256 57.34 32.1423 57.3633 32.2543 57.41C32.3756 57.4567 32.4829 57.5547 32.5763 57.704ZM36.7006 67.14C37.4472 67.14 38.0866 66.9953 38.6186 66.706C39.1506 66.4167 39.5846 65.9827 39.9206 65.404L38.6186 64.872C38.4132 65.2173 38.1566 65.474 37.8486 65.642C37.5406 65.81 37.1812 65.894 36.7706 65.894C36.3786 65.894 36.0426 65.81 35.7626 65.642C35.4919 65.474 35.2866 65.2313 35.1466 64.914C35.0066 64.5873 34.9366 64.1907 34.9366 63.724C34.9459 63.2573 35.0206 62.8653 35.1606 62.548C35.3006 62.2307 35.5059 61.988 35.7766 61.82C36.0472 61.652 36.3739 61.568 36.7566 61.568C37.0739 61.568 37.3492 61.638 37.5826 61.778C37.8252 61.918 38.0119 62.114 38.1426 62.366C38.2826 62.618 38.3526 62.9167 38.3526 63.262C38.3526 63.3273 38.3339 63.4113 38.2966 63.514C38.2686 63.6073 38.2406 63.682 38.2126 63.738L38.6746 63.094H34.3066V64.13H39.9626C39.9719 64.0927 39.9766 64.032 39.9766 63.948C39.9859 63.864 39.9906 63.7847 39.9906 63.71C39.9906 63.0193 39.8599 62.4313 39.5986 61.946C39.3466 61.4513 38.9826 61.0733 38.5066 60.812C38.0306 60.5507 37.4519 60.42 36.7706 60.42C36.0892 60.42 35.4966 60.56 34.9926 60.84C34.4886 61.1107 34.0966 61.498 33.8166 62.002C33.5459 62.506 33.4106 63.0987 33.4106 63.78C33.4106 64.452 33.5459 65.04 33.8166 65.544C34.0872 66.048 34.4699 66.44 34.9646 66.72C35.4686 67 36.0472 67.14 36.7006 67.14ZM41.7278 64.886L40.8458 65.768C41.0324 66.0107 41.2611 66.244 41.5318 66.468C41.8118 66.6827 42.1338 66.86 42.4978 67C42.8711 67.1307 43.2771 67.196 43.7158 67.196C44.4251 67.196 44.9851 67.014 45.3958 66.65C45.8158 66.2767 46.0258 65.7867 46.0258 65.18C46.0258 64.788 45.9324 64.4707 45.7458 64.228C45.5684 63.9853 45.3304 63.78 45.0318 63.612C44.7331 63.444 44.4064 63.29 44.0518 63.15C43.7904 63.0473 43.5524 62.9493 43.3378 62.856C43.1324 62.7627 42.9644 62.66 42.8338 62.548C42.7124 62.4267 42.6518 62.2913 42.6518 62.142C42.6518 61.9647 42.7218 61.8293 42.8618 61.736C43.0018 61.6427 43.1791 61.596 43.3938 61.596C43.7111 61.596 44.0191 61.6753 44.3178 61.834C44.6164 61.9927 44.8731 62.198 45.0878 62.45L45.9278 61.554C45.7504 61.3393 45.5358 61.148 45.2838 60.98C45.0318 60.812 44.7471 60.6767 44.4298 60.574C44.1218 60.4713 43.7904 60.42 43.4358 60.42C43.0438 60.42 42.6751 60.4853 42.3298 60.616C41.9938 60.7373 41.7231 60.9287 41.5178 61.19C41.3218 61.4513 41.2238 61.778 41.2238 62.17C41.2238 62.5527 41.3124 62.87 41.4898 63.122C41.6764 63.374 41.9098 63.5793 42.1898 63.738C42.4791 63.8873 42.7684 64.018 43.0578 64.13C43.3471 64.2327 43.5991 64.3353 43.8138 64.438C44.0284 64.5313 44.1964 64.648 44.3178 64.788C44.4391 64.9187 44.4998 65.0773 44.4998 65.264C44.4998 65.4787 44.4204 65.6467 44.2618 65.768C44.1124 65.8893 43.9024 65.95 43.6318 65.95C43.4171 65.95 43.2024 65.9127 42.9878 65.838C42.7731 65.754 42.5584 65.6327 42.3438 65.474C42.1384 65.306 41.9331 65.11 41.7278 64.886ZM47.6614 64.886L46.7794 65.768C46.966 66.0107 47.1947 66.244 47.4654 66.468C47.7454 66.6827 48.0674 66.86 48.4314 67C48.8047 67.1307 49.2107 67.196 49.6494 67.196C50.3587 67.196 50.9187 67.014 51.3294 66.65C51.7494 66.2767 51.9594 65.7867 51.9594 65.18C51.9594 64.788 51.866 64.4707 51.6794 64.228C51.502 63.9853 51.264 63.78 50.9654 63.612C50.6667 63.444 50.34 63.29 49.9854 63.15C49.724 63.0473 49.486 62.9493 49.2714 62.856C49.066 62.7627 48.898 62.66 48.7674 62.548C48.646 62.4267 48.5854 62.2913 48.5854 62.142C48.5854 61.9647 48.6554 61.8293 48.7954 61.736C48.9354 61.6427 49.1127 61.596 49.3274 61.596C49.6447 61.596 49.9527 61.6753 50.2514 61.834C50.55 61.9927 50.8067 62.198 51.0214 62.45L51.8614 61.554C51.684 61.3393 51.4694 61.148 51.2174 60.98C50.9654 60.812 50.6807 60.6767 50.3634 60.574C50.0554 60.4713 49.724 60.42 49.3694 60.42C48.9774 60.42 48.6087 60.4853 48.2634 60.616C47.9274 60.7373 47.6567 60.9287 47.4514 61.19C47.2554 61.4513 47.1574 61.778 47.1574 62.17C47.1574 62.5527 47.246 62.87 47.4234 63.122C47.61 63.374 47.8434 63.5793 48.1234 63.738C48.4127 63.8873 48.702 64.018 48.9914 64.13C49.2807 64.2327 49.5327 64.3353 49.7474 64.438C49.962 64.5313 50.13 64.648 50.2514 64.788C50.3727 64.9187 50.4334 65.0773 50.4334 65.264C50.4334 65.4787 50.354 65.6467 50.1954 65.768C50.046 65.8893 49.836 65.95 49.5654 65.95C49.3507 65.95 49.136 65.9127 48.9214 65.838C48.7067 65.754 48.492 65.6327 48.2774 65.474C48.072 65.306 47.8667 65.11 47.6614 64.886ZM53.245 57.998C53.245 58.25 53.3383 58.4693 53.525 58.656C53.721 58.8333 53.945 58.922 54.197 58.922C54.4676 58.922 54.6916 58.8333 54.869 58.656C55.0556 58.4693 55.149 58.25 55.149 57.998C55.149 57.7367 55.0556 57.5173 54.869 57.34C54.6916 57.1627 54.4676 57.074 54.197 57.074C53.945 57.074 53.721 57.1627 53.525 57.34C53.3383 57.5173 53.245 57.7367 53.245 57.998ZM53.455 60.56V67H54.939V60.56H53.455ZM56.5297 63.78C56.5297 64.4333 56.679 65.0167 56.9777 65.53C57.2857 66.034 57.701 66.4307 58.2237 66.72C58.7464 67 59.339 67.14 60.0017 67.14C60.6644 67.14 61.2524 67 61.7657 66.72C62.2884 66.4307 62.7037 66.034 63.0117 65.53C63.3197 65.0167 63.4737 64.4333 63.4737 63.78C63.4737 63.1173 63.3197 62.534 63.0117 62.03C62.7037 61.526 62.2884 61.134 61.7657 60.854C61.2524 60.5647 60.6644 60.42 60.0017 60.42C59.339 60.42 58.7464 60.5647 58.2237 60.854C57.701 61.134 57.2857 61.526 56.9777 62.03C56.679 62.534 56.5297 63.1173 56.5297 63.78ZM58.0837 63.78C58.0837 63.3787 58.1677 63.024 58.3357 62.716C58.5037 62.408 58.7324 62.17 59.0217 62.002C59.311 61.834 59.6377 61.75 60.0017 61.75C60.3564 61.75 60.6784 61.834 60.9677 62.002C61.2664 62.17 61.4997 62.408 61.6677 62.716C61.8357 63.024 61.9197 63.3787 61.9197 63.78C61.9197 64.1813 61.8357 64.536 61.6677 64.844C61.4997 65.1427 61.2664 65.3807 60.9677 65.558C60.6784 65.726 60.3564 65.81 60.0017 65.81C59.6377 65.81 59.311 65.726 59.0217 65.558C58.7324 65.3807 58.5037 65.1427 58.3357 64.844C58.1677 64.536 58.0837 64.1813 58.0837 63.78ZM69.0524 63.08V67H70.6064V62.912C70.6064 62.1373 70.415 61.5307 70.0324 61.092C69.6497 60.644 69.0944 60.42 68.3664 60.42C67.9184 60.42 67.531 60.5133 67.2044 60.7C66.887 60.8867 66.6257 61.1713 66.4204 61.554V60.56H64.9084V67H66.4204V63.08C66.4204 62.7907 66.481 62.5387 66.6024 62.324C66.7237 62.1 66.8917 61.932 67.1064 61.82C67.321 61.6987 67.5684 61.638 67.8484 61.638C68.259 61.638 68.5624 61.7593 68.7584 62.002C68.9544 62.2447 69.0524 62.604 69.0524 63.08ZM73.4893 64.998C73.4893 64.7927 73.536 64.62 73.6293 64.48C73.732 64.34 73.8813 64.2327 74.0773 64.158C74.2733 64.074 74.53 64.032 74.8473 64.032C75.2113 64.032 75.5566 64.0787 75.8833 64.172C76.21 64.2653 76.518 64.4147 76.8073 64.62V63.85C76.7233 63.7473 76.5786 63.6353 76.3733 63.514C76.168 63.3833 75.9066 63.2713 75.5893 63.178C75.2813 63.0847 74.9126 63.038 74.4833 63.038C73.6806 63.038 73.06 63.2247 72.6213 63.598C72.1826 63.962 71.9633 64.4567 71.9633 65.082C71.9633 65.5207 72.066 65.894 72.2713 66.202C72.4766 66.51 72.752 66.7433 73.0973 66.902C73.4426 67.0607 73.816 67.14 74.2173 67.14C74.5906 67.14 74.9546 67.0747 75.3093 66.944C75.6733 66.804 75.972 66.5987 76.2053 66.328C76.448 66.048 76.5693 65.7027 76.5693 65.292L76.3453 64.452C76.3453 64.7693 76.266 65.0493 76.1073 65.292C75.958 65.5253 75.7573 65.7027 75.5053 65.824C75.2626 65.9453 74.992 66.006 74.6933 66.006C74.46 66.006 74.25 65.9687 74.0633 65.894C73.886 65.8193 73.746 65.7073 73.6433 65.558C73.5406 65.3993 73.4893 65.2127 73.4893 64.998ZM73.0133 62.24C73.1066 62.1747 73.2466 62.0953 73.4333 62.002C73.6293 61.8993 73.858 61.8153 74.1193 61.75C74.39 61.6753 74.6746 61.638 74.9733 61.638C75.1693 61.638 75.3513 61.6567 75.5193 61.694C75.6873 61.7313 75.832 61.792 75.9533 61.876C76.0746 61.96 76.168 62.0673 76.2333 62.198C76.308 62.3287 76.3453 62.4967 76.3453 62.702V67H77.8293V62.408C77.8293 61.9787 77.7126 61.6193 77.4793 61.33C77.246 61.0313 76.924 60.8027 76.5133 60.644C76.112 60.4853 75.6453 60.406 75.1133 60.406C74.516 60.406 73.984 60.49 73.5173 60.658C73.06 60.826 72.6866 60.9987 72.3973 61.176L73.0133 62.24ZM79.592 56.08V67H81.104V56.08H79.592Z" fill="white"/>
<rect x="0.5" y="0.5" width="89" height="89" rx="9.57" stroke="white"/>
</svg>
