<svg width="90" height="92" viewBox="0 0 90 92" fill="none" xmlns="http://www.w3.org/2000/svg">
<path d="M45 40.9134C50.5228 40.9134 55 36.4362 55 30.9134C55 25.3905 50.5228 20.9134 45 20.9134C39.4772 20.9134 35 25.3905 35 30.9134C35 36.4362 39.4772 40.9134 45 40.9134Z" stroke="white" stroke-width="2" stroke-linecap="round" stroke-linejoin="round"/>
<path d="M15.3234 58.1133V67.9133H16.9894V58.1133H15.3234ZM23.1969 63.9933V67.9133H24.7509V63.8253C24.7509 63.0507 24.5596 62.444 24.1769 62.0053C23.7942 61.5573 23.2389 61.3333 22.5109 61.3333C22.0629 61.3333 21.6756 61.4267 21.3489 61.6133C21.0316 61.8 20.7702 62.0847 20.5649 62.4673V61.4733H19.0529V67.9133H20.5649V63.9933C20.5649 63.704 20.6256 63.452 20.7469 63.2373C20.8682 63.0133 21.0362 62.8453 21.2509 62.7333C21.4656 62.612 21.7129 62.5513 21.9929 62.5513C22.4036 62.5513 22.7069 62.6727 22.9029 62.9153C23.0989 63.158 23.1969 63.5173 23.1969 63.9933ZM26.1498 61.4733V62.8033H29.8458V61.4733H26.1498ZM29.6778 58.6173L30.3918 57.4413C30.3172 57.348 30.2098 57.2547 30.0698 57.1613C29.9392 57.068 29.7805 56.9887 29.5938 56.9233C29.4072 56.858 29.1878 56.8253 28.9358 56.8253C28.4878 56.8253 28.1098 56.914 27.8018 57.0913C27.4938 57.2593 27.2558 57.5113 27.0878 57.8473C26.9292 58.174 26.8498 58.5893 26.8498 59.0933V67.9133H28.3338V59.3873C28.3338 59.1167 28.3618 58.8973 28.4178 58.7293C28.4738 58.5613 28.5485 58.44 28.6418 58.3653C28.7445 58.2907 28.8658 58.2533 29.0058 58.2533C29.1272 58.2533 29.2438 58.2767 29.3558 58.3233C29.4772 58.37 29.5845 58.468 29.6778 58.6173ZM31.0021 56.9933V67.9133H32.5141V56.9933H31.0021ZM36.0014 65.3933V61.4733H34.4474V65.5613C34.4474 66.3267 34.6388 66.9333 35.0214 67.3813C35.4134 67.8293 35.9688 68.0533 36.6874 68.0533C37.1354 68.0533 37.5181 67.96 37.8354 67.7733C38.1621 67.5773 38.4281 67.2927 38.6334 66.9193V67.9133H40.1454V61.4733H38.6334V65.3933C38.6334 65.6827 38.5728 65.9393 38.4514 66.1633C38.3301 66.378 38.1621 66.546 37.9474 66.6673C37.7328 66.7793 37.4808 66.8353 37.1914 66.8353C36.7901 66.8353 36.4914 66.7093 36.2954 66.4573C36.0994 66.2053 36.0014 65.8507 36.0014 65.3933ZM44.8764 68.0533C45.623 68.0533 46.2624 67.9087 46.7944 67.6193C47.3264 67.33 47.7604 66.896 48.0964 66.3173L46.7944 65.7853C46.589 66.1307 46.3324 66.3873 46.0244 66.5553C45.7164 66.7233 45.357 66.8073 44.9464 66.8073C44.5544 66.8073 44.2184 66.7233 43.9384 66.5553C43.6677 66.3873 43.4624 66.1447 43.3224 65.8273C43.1824 65.5007 43.1124 65.104 43.1124 64.6373C43.1217 64.1707 43.1964 63.7787 43.3364 63.4613C43.4764 63.144 43.6817 62.9013 43.9524 62.7333C44.223 62.5653 44.5497 62.4813 44.9324 62.4813C45.2497 62.4813 45.525 62.5513 45.7584 62.6913C46.001 62.8313 46.1877 63.0273 46.3184 63.2793C46.4584 63.5313 46.5284 63.83 46.5284 64.1753C46.5284 64.2407 46.5097 64.3247 46.4724 64.4273C46.4444 64.5207 46.4164 64.5953 46.3884 64.6513L46.8504 64.0073H42.4824V65.0433H48.1384C48.1477 65.006 48.1524 64.9453 48.1524 64.8613C48.1617 64.7773 48.1664 64.698 48.1664 64.6233C48.1664 63.9327 48.0357 63.3447 47.7744 62.8593C47.5224 62.3647 47.1584 61.9867 46.6824 61.7253C46.2064 61.464 45.6277 61.3333 44.9464 61.3333C44.265 61.3333 43.6724 61.4733 43.1684 61.7533C42.6644 62.024 42.2724 62.4113 41.9924 62.9153C41.7217 63.4193 41.5864 64.012 41.5864 64.6933C41.5864 65.3653 41.7217 65.9533 41.9924 66.4573C42.263 66.9613 42.6457 67.3533 43.1404 67.6333C43.6444 67.9133 44.223 68.0533 44.8764 68.0533ZM53.7536 63.9933V67.9133H55.3076V63.8253C55.3076 63.0507 55.1162 62.444 54.7336 62.0053C54.3509 61.5573 53.7956 61.3333 53.0676 61.3333C52.6196 61.3333 52.2322 61.4267 51.9056 61.6133C51.5882 61.8 51.3269 62.0847 51.1216 62.4673V61.4733H49.6096V67.9133H51.1216V63.9933C51.1216 63.704 51.1822 63.452 51.3036 63.2373C51.4249 63.0133 51.5929 62.8453 51.8076 62.7333C52.0222 62.612 52.2696 62.5513 52.5496 62.5513C52.9602 62.5513 53.2636 62.6727 53.4596 62.9153C53.6556 63.158 53.7536 63.5173 53.7536 63.9933ZM58.2465 64.6933C58.2465 64.292 58.3351 63.9373 58.5125 63.6293C58.6898 63.3213 58.9278 63.0787 59.2265 62.9013C59.5345 62.724 59.8751 62.6353 60.2485 62.6353C60.5471 62.6353 60.8365 62.682 61.1165 62.7753C61.3965 62.8687 61.6438 62.9993 61.8585 63.1673C62.0825 63.326 62.2458 63.5127 62.3485 63.7273V62.0613C62.1245 61.8373 61.8211 61.66 61.4385 61.5293C61.0558 61.3987 60.6358 61.3333 60.1785 61.3333C59.5158 61.3333 58.9185 61.478 58.3865 61.7673C57.8638 62.0473 57.4485 62.4393 57.1405 62.9433C56.8418 63.4473 56.6925 64.0307 56.6925 64.6933C56.6925 65.3467 56.8418 65.93 57.1405 66.4433C57.4485 66.9473 57.8638 67.344 58.3865 67.6333C58.9185 67.9133 59.5158 68.0533 60.1785 68.0533C60.6358 68.0533 61.0558 67.988 61.4385 67.8573C61.8211 67.7267 62.1245 67.5493 62.3485 67.3253V65.6593C62.2458 65.8647 62.0871 66.0513 61.8725 66.2193C61.6578 66.3873 61.4105 66.518 61.1305 66.6113C60.8505 66.7047 60.5565 66.7513 60.2485 66.7513C59.8751 66.7513 59.5345 66.6627 59.2265 66.4853C58.9278 66.308 58.6898 66.07 58.5125 65.7713C58.3351 65.4633 58.2465 65.104 58.2465 64.6933ZM66.8197 68.0533C67.5664 68.0533 68.2057 67.9087 68.7377 67.6193C69.2697 67.33 69.7037 66.896 70.0397 66.3173L68.7377 65.7853C68.5324 66.1307 68.2757 66.3873 67.9677 66.5553C67.6597 66.7233 67.3004 66.8073 66.8897 66.8073C66.4977 66.8073 66.1617 66.7233 65.8817 66.5553C65.611 66.3873 65.4057 66.1447 65.2657 65.8273C65.1257 65.5007 65.0557 65.104 65.0557 64.6373C65.065 64.1707 65.1397 63.7787 65.2797 63.4613C65.4197 63.144 65.625 62.9013 65.8957 62.7333C66.1664 62.5653 66.493 62.4813 66.8757 62.4813C67.193 62.4813 67.4684 62.5513 67.7017 62.6913C67.9444 62.8313 68.131 63.0273 68.2617 63.2793C68.4017 63.5313 68.4717 63.83 68.4717 64.1753C68.4717 64.2407 68.453 64.3247 68.4157 64.4273C68.3877 64.5207 68.3597 64.5953 68.3317 64.6513L68.7937 64.0073H64.4257V65.0433H70.0817C70.091 65.006 70.0957 64.9453 70.0957 64.8613C70.105 64.7773 70.1097 64.698 70.1097 64.6233C70.1097 63.9327 69.979 63.3447 69.7177 62.8593C69.4657 62.3647 69.1017 61.9867 68.6257 61.7253C68.1497 61.464 67.571 61.3333 66.8897 61.3333C66.2084 61.3333 65.6157 61.4733 65.1117 61.7533C64.6077 62.024 64.2157 62.4113 63.9357 62.9153C63.665 63.4193 63.5297 64.012 63.5297 64.6933C63.5297 65.3653 63.665 65.9533 63.9357 66.4573C64.2064 66.9613 64.589 67.3533 65.0837 67.6333C65.5877 67.9133 66.1664 68.0533 66.8197 68.0533ZM73.0509 61.4733H71.5529V67.9133H73.0509V61.4733ZM74.9689 63.0833L75.6969 61.8093C75.5569 61.632 75.3842 61.5107 75.1789 61.4453C74.9736 61.3707 74.7542 61.3333 74.5209 61.3333C74.1942 61.3333 73.8769 61.45 73.5689 61.6833C73.2702 61.9167 73.0229 62.234 72.8269 62.6353C72.6402 63.0273 72.5469 63.48 72.5469 63.9933L73.0509 64.2873C73.0509 63.9793 73.0836 63.7133 73.1489 63.4893C73.2236 63.256 73.3402 63.074 73.4989 62.9433C73.6576 62.8127 73.8629 62.7473 74.1149 62.7473C74.3016 62.7473 74.4556 62.7753 74.5769 62.8313C74.6982 62.8873 74.8289 62.9713 74.9689 63.0833Z" fill="white"/>
<rect x="0.5" y="0.59906" width="89" height="90.6286" rx="9.57" stroke="white"/>
</svg>
