<svg width="90" height="92" viewBox="0 0 90 92" fill="none" xmlns="http://www.w3.org/2000/svg">
<path d="M45 40.9134C50.5228 40.9134 55 36.4362 55 30.9134C55 25.3905 50.5228 20.9134 45 20.9134C39.4772 20.9134 35 25.3905 35 30.9134C35 36.4362 39.4772 40.9134 45 40.9134Z" stroke="white" stroke-width="2" stroke-linecap="round" stroke-linejoin="round"/>
<path d="M16.0002 58.1133V67.9133H17.6662V58.1133H16.0002ZM23.8737 63.9933V67.9133H25.4277V63.8253C25.4277 63.0507 25.2363 62.444 24.8537 62.0053C24.471 61.5573 23.9157 61.3333 23.1877 61.3333C22.7397 61.3333 22.3523 61.4267 22.0257 61.6133C21.7083 61.8 21.447 62.0847 21.2417 62.4673V61.4733H19.7297V67.9133H21.2417V63.9933C21.2417 63.704 21.3023 63.452 21.4237 63.2373C21.545 63.0133 21.713 62.8453 21.9277 62.7333C22.1423 62.612 22.3897 62.5513 22.6697 62.5513C23.0803 62.5513 23.3837 62.6727 23.5797 62.9153C23.7757 63.158 23.8737 63.5173 23.8737 63.9933ZM32.2026 56.9933V67.9133H33.7286V56.9933H32.2026ZM26.8686 64.6933C26.8686 65.3933 27.0132 65.9953 27.3026 66.4993C27.5919 67.0033 27.9746 67.3907 28.4506 67.6613C28.9359 67.9227 29.4539 68.0533 30.0046 68.0533C30.5459 68.0533 31.0172 67.918 31.4186 67.6473C31.8292 67.3767 32.1512 66.9893 32.3846 66.4853C32.6272 65.9813 32.7486 65.384 32.7486 64.6933C32.7486 63.9933 32.6272 63.396 32.3846 62.9013C32.1512 62.3973 31.8292 62.01 31.4186 61.7393C31.0172 61.4687 30.5459 61.3333 30.0046 61.3333C29.4539 61.3333 28.9359 61.4687 28.4506 61.7393C27.9746 62.0007 27.5919 62.3833 27.3026 62.8873C27.0132 63.382 26.8686 63.984 26.8686 64.6933ZM28.4366 64.6933C28.4366 64.264 28.5252 63.8953 28.7026 63.5873C28.8799 63.2793 29.1132 63.046 29.4026 62.8873C29.7012 62.7287 30.0232 62.6493 30.3686 62.6493C30.6579 62.6493 30.9426 62.7287 31.2226 62.8873C31.5119 63.046 31.7452 63.2793 31.9226 63.5873C32.1092 63.886 32.2026 64.2547 32.2026 64.6933C32.2026 65.132 32.1092 65.5053 31.9226 65.8133C31.7452 66.112 31.5119 66.3407 31.2226 66.4993C30.9426 66.658 30.6579 66.7373 30.3686 66.7373C30.0232 66.7373 29.7012 66.658 29.4026 66.4993C29.1132 66.3407 28.8799 66.1073 28.7026 65.7993C28.5252 65.4913 28.4366 65.1227 28.4366 64.6933ZM35.5467 58.9113C35.5467 59.1633 35.6401 59.3827 35.8267 59.5693C36.0227 59.7467 36.2467 59.8353 36.4987 59.8353C36.7694 59.8353 36.9934 59.7467 37.1707 59.5693C37.3574 59.3827 37.4507 59.1633 37.4507 58.9113C37.4507 58.65 37.3574 58.4307 37.1707 58.2533C36.9934 58.076 36.7694 57.9873 36.4987 57.9873C36.2467 57.9873 36.0227 58.076 35.8267 58.2533C35.6401 58.4307 35.5467 58.65 35.5467 58.9113ZM35.7567 61.4733V67.9133H37.2407V61.4733H35.7567ZM38.3415 61.4733L41.6735 68.5013L45.0195 61.4733H43.3535L41.6735 65.6313L39.9935 61.4733H38.3415ZM45.91 58.9113C45.91 59.1633 46.0033 59.3827 46.19 59.5693C46.386 59.7467 46.61 59.8353 46.862 59.8353C47.1327 59.8353 47.3567 59.7467 47.534 59.5693C47.7207 59.3827 47.814 59.1633 47.814 58.9113C47.814 58.65 47.7207 58.4307 47.534 58.2533C47.3567 58.076 47.1327 57.9873 46.862 57.9873C46.61 57.9873 46.386 58.076 46.19 58.2533C46.0033 58.4307 45.91 58.65 45.91 58.9113ZM46.12 61.4733V67.9133H47.604V61.4733H46.12ZM54.5288 56.9933V67.9133H56.0548V56.9933H54.5288ZM49.1948 64.6933C49.1948 65.3933 49.3394 65.9953 49.6288 66.4993C49.9181 67.0033 50.3008 67.3907 50.7767 67.6613C51.2621 67.9227 51.7801 68.0533 52.3308 68.0533C52.8721 68.0533 53.3434 67.918 53.7448 67.6473C54.1554 67.3767 54.4774 66.9893 54.7108 66.4853C54.9534 65.9813 55.0748 65.384 55.0748 64.6933C55.0748 63.9933 54.9534 63.396 54.7108 62.9013C54.4774 62.3973 54.1554 62.01 53.7448 61.7393C53.3434 61.4687 52.8721 61.3333 52.3308 61.3333C51.7801 61.3333 51.2621 61.4687 50.7767 61.7393C50.3008 62.0007 49.9181 62.3833 49.6288 62.8873C49.3394 63.382 49.1948 63.984 49.1948 64.6933ZM50.7628 64.6933C50.7628 64.264 50.8514 63.8953 51.0288 63.5873C51.2061 63.2793 51.4394 63.046 51.7288 62.8873C52.0274 62.7287 52.3494 62.6493 52.6948 62.6493C52.9841 62.6493 53.2688 62.7287 53.5488 62.8873C53.8381 63.046 54.0714 63.2793 54.2488 63.5873C54.4354 63.886 54.5288 64.2547 54.5288 64.6933C54.5288 65.132 54.4354 65.5053 54.2488 65.8133C54.0714 66.112 53.8381 66.3407 53.5488 66.4993C53.2688 66.658 52.9841 66.7373 52.6948 66.7373C52.3494 66.7373 52.0274 66.658 51.7288 66.4993C51.4394 66.3407 51.2061 66.1073 51.0288 65.7993C50.8514 65.4913 50.7628 65.1227 50.7628 64.6933ZM59.4829 65.3933V61.4733H57.9289V65.5613C57.9289 66.3267 58.1202 66.9333 58.5029 67.3813C58.8949 67.8293 59.4502 68.0533 60.1689 68.0533C60.6169 68.0533 60.9996 67.96 61.3169 67.7733C61.6436 67.5773 61.9096 67.2927 62.1149 66.9193V67.9133H63.6269V61.4733H62.1149V65.3933C62.1149 65.6827 62.0542 65.9393 61.9329 66.1633C61.8116 66.378 61.6436 66.546 61.4289 66.6673C61.2142 66.7793 60.9622 66.8353 60.6729 66.8353C60.2716 66.8353 59.9729 66.7093 59.7769 66.4573C59.5809 66.2053 59.4829 65.8507 59.4829 65.3933ZM66.5098 65.9113C66.5098 65.706 66.5565 65.5333 66.6498 65.3933C66.7525 65.2533 66.9018 65.146 67.0978 65.0713C67.2938 64.9873 67.5505 64.9453 67.8678 64.9453C68.2318 64.9453 68.5771 64.992 68.9038 65.0853C69.2305 65.1787 69.5385 65.328 69.8278 65.5333V64.7633C69.7438 64.6607 69.5991 64.5487 69.3938 64.4273C69.1885 64.2967 68.9271 64.1847 68.6098 64.0913C68.3018 63.998 67.9331 63.9513 67.5038 63.9513C66.7011 63.9513 66.0805 64.138 65.6418 64.5113C65.2031 64.8753 64.9838 65.37 64.9838 65.9953C64.9838 66.434 65.0865 66.8073 65.2918 67.1153C65.4971 67.4233 65.7725 67.6567 66.1178 67.8153C66.4631 67.974 66.8365 68.0533 67.2378 68.0533C67.6111 68.0533 67.9751 67.988 68.3298 67.8573C68.6938 67.7173 68.9925 67.512 69.2258 67.2413C69.4685 66.9613 69.5898 66.616 69.5898 66.2053L69.3658 65.3653C69.3658 65.6827 69.2865 65.9627 69.1278 66.2053C68.9785 66.4387 68.7778 66.616 68.5258 66.7373C68.2831 66.8587 68.0125 66.9193 67.7138 66.9193C67.4805 66.9193 67.2705 66.882 67.0838 66.8073C66.9065 66.7327 66.7665 66.6207 66.6638 66.4713C66.5611 66.3127 66.5098 66.126 66.5098 65.9113ZM66.0338 63.1533C66.1271 63.088 66.2671 63.0087 66.4538 62.9153C66.6498 62.8127 66.8785 62.7287 67.1398 62.6633C67.4105 62.5887 67.6951 62.5513 67.9938 62.5513C68.1898 62.5513 68.3718 62.57 68.5398 62.6073C68.7078 62.6447 68.8525 62.7053 68.9738 62.7893C69.0951 62.8733 69.1885 62.9807 69.2538 63.1113C69.3285 63.242 69.3658 63.41 69.3658 63.6153V67.9133H70.8498V63.3213C70.8498 62.892 70.7331 62.5327 70.4998 62.2433C70.2665 61.9447 69.9445 61.716 69.5338 61.5573C69.1325 61.3987 68.6658 61.3193 68.1338 61.3193C67.5365 61.3193 67.0045 61.4033 66.5378 61.5713C66.0805 61.7393 65.7071 61.912 65.4178 62.0893L66.0338 63.1533ZM72.6125 56.9933V67.9133H74.1245V56.9933H72.6125Z" fill="white"/>
<rect x="0.5" y="0.59906" width="89" height="90.6286" rx="9.57" stroke="white"/>
</svg>
