<svg width="14" height="14" viewBox="0 0 14 14" fill="none" xmlns="http://www.w3.org/2000/svg">
<path d="M7.30962 0.0118125C8.07306 0 8.83212 0.007 9.59031 0C9.63625 0.892937 9.95737 1.8025 10.611 2.43381C11.2633 3.08088 12.186 3.37706 13.0837 3.47725V5.82619C12.2424 5.79862 11.3972 5.62362 10.6337 5.26137C10.3012 5.11088 9.9915 4.91706 9.68831 4.71887C9.68437 6.42338 9.69531 8.12569 9.67737 9.82319C9.63187 10.6387 9.36281 11.4502 8.88856 12.1222C8.12556 13.2409 6.80125 13.9703 5.44106 13.993C4.60675 14.0407 3.77331 13.8132 3.06237 13.3941C1.88419 12.6993 1.05512 11.4275 0.934374 10.0625C0.919164 9.77341 0.916828 9.48379 0.927374 9.1945C1.03237 8.08456 1.58144 7.02275 2.43369 6.30044C3.39969 5.45913 4.75287 5.05837 6.01987 5.2955C6.03169 6.15956 5.99712 7.02275 5.99712 7.88681C5.41831 7.69956 4.74194 7.75206 4.23619 8.10337C3.86617 8.34713 3.58654 8.70577 3.44037 9.12406C3.31962 9.41981 3.35419 9.74837 3.36119 10.0625C3.49987 11.0197 4.42037 11.8243 5.403 11.7372C6.05444 11.7302 6.67875 11.3523 7.01825 10.7988C7.12806 10.605 7.251 10.4068 7.25756 10.1789C7.31487 9.13544 7.29212 8.09638 7.29912 7.05294C7.30394 4.70138 7.29212 2.35637 7.31006 0.01225L7.30962 0.0118125Z" fill="#25215B"/>
</svg>
