<svg width="23" height="22" viewBox="0 0 23 22" fill="none" xmlns="http://www.w3.org/2000/svg">
<path d="M21.0512 15.9201V18.9201C21.0523 19.1986 20.995 19.4743 20.8828 19.7294C20.7707 19.9846 20.6062 20.2137 20.3999 20.402C20.1936 20.5902 19.9501 20.7336 19.6849 20.8228C19.4197 20.912 19.1387 20.9452 18.8599 20.9201C15.7669 20.5857 12.7958 19.5342 10.1855 17.8501C7.75683 16.3148 5.69778 14.2663 4.15453 11.8501C2.4558 9.2413 1.39864 6.27109 1.06871 3.1801C1.04359 2.90356 1.07662 2.62486 1.1657 2.36172C1.25479 2.09859 1.39796 1.85679 1.58612 1.65172C1.77429 1.44665 2.0033 1.28281 2.2586 1.17062C2.51389 1.05843 2.78987 1.00036 3.06896 1.0001H6.08443C6.57224 0.995321 7.04515 1.16718 7.41501 1.48363C7.78488 1.80008 8.02646 2.23954 8.09474 2.7201C8.22201 3.68016 8.45805 4.62282 8.79835 5.5301C8.93358 5.88802 8.96285 6.27701 8.88268 6.65098C8.80252 7.02494 8.61627 7.36821 8.34603 7.6401L7.06948 8.9101C8.50037 11.4136 10.584 13.4865 13.1004 14.9101L14.377 13.6401C14.6502 13.3712 14.9953 13.1859 15.3712 13.1062C15.7471 13.0264 16.1381 13.0556 16.4978 13.1901C17.4098 13.5286 18.3573 13.7635 19.3223 13.8901C19.8106 13.9586 20.2565 14.2033 20.5753 14.5776C20.894 14.9519 21.0634 15.4297 21.0512 15.9201Z" stroke="#25215B" stroke-width="2" stroke-linecap="round" stroke-linejoin="round"/>
</svg>
