<svg width="14" height="15" viewBox="0 0 14 15" fill="none" xmlns="http://www.w3.org/2000/svg">
<path d="M12.3316 6.04994H12.2974V5.21123C12.2974 2.51707 10.1133 0.333008 7.41915 0.333008C4.72495 0.333008 2.54092 2.51707 2.54092 5.21123V6.04994H2.33554C1.5824 6.04994 1.00045 6.71747 1.00045 7.48774V9.62731C0.981476 10.3739 1.57133 10.9944 2.31788 11.0134C2.32378 11.0136 2.32964 11.0137 2.33554 11.0137H3.60216C3.78156 11.0053 3.92018 10.853 3.91173 10.6736C3.91143 10.6672 3.91094 10.6607 3.91025 10.6543V6.46072C3.91025 6.25533 3.79044 6.04991 3.60216 6.04991H3.22559V5.2112C3.22559 2.89517 5.10312 1.01764 7.41915 1.01764C9.73517 1.01764 11.6127 2.89517 11.6127 5.2112V6.04991H11.2361C11.0479 6.04991 10.928 6.2553 10.928 6.46072V10.6543C10.9089 10.8329 11.0382 10.9931 11.2168 11.0122C11.2232 11.0129 11.2297 11.0134 11.2361 11.0137H11.6298L11.5956 11.065C11.082 11.7476 10.276 12.1474 9.42177 12.1434C9.23476 11.2264 8.33976 10.6346 7.42278 10.8217C6.63862 10.9816 6.07324 11.6683 6.06692 12.4686C6.07629 13.4072 6.83991 14.1632 7.77858 14.1631C8.24325 14.1556 8.68616 13.9649 9.01096 13.6325C9.23011 13.4081 9.37371 13.1209 9.42177 12.8109C10.4915 12.815 11.5004 12.3137 12.1433 11.4587L12.4685 10.9794C13.2045 10.9281 13.6667 10.466 13.6667 9.7984V7.65883C13.6667 6.92289 13.119 6.04994 12.3316 6.04994ZM3.22559 10.3291H2.33554C1.96696 10.3201 1.67544 10.0141 1.68442 9.64549C1.68458 9.63943 1.68481 9.63337 1.68511 9.62728V7.48771C1.68511 7.09404 1.95897 6.73458 2.33554 6.73458H3.22559V10.3291ZM8.51462 13.1533C8.32492 13.359 8.0584 13.4768 7.77861 13.4785C7.22172 13.4697 6.7698 13.0253 6.75162 12.4686C6.75139 11.9109 7.20334 11.4586 7.76109 11.4584C8.31883 11.4581 8.77114 11.9101 8.77137 12.4678C8.77137 12.4681 8.77137 12.4684 8.77137 12.4686C8.78562 12.7228 8.69245 12.9712 8.51462 13.1533ZM12.982 9.79846C12.982 10.2606 12.537 10.3291 12.3316 10.3291H11.6127V6.73461H12.3316C12.7082 6.73461 12.982 7.26522 12.982 7.65889V9.79846Z" fill="#25215B" stroke="#25215B" stroke-width="0.5"/>
</svg>
