<svg width="24" height="24" viewBox="0 0 24 24" fill="none" xmlns="http://www.w3.org/2000/svg">
<rect x="0.5" y="0.5" width="23" height="23" rx="11.5" fill="white" stroke="#F0F0F0"/>
<path d="M12 15.8398H16.32" stroke="#25215B" stroke-linecap="round" stroke-linejoin="round"/>
<path d="M14.1607 7.91933C14.3516 7.72837 14.6106 7.62109 14.8807 7.62109C15.0144 7.62109 15.1468 7.64743 15.2703 7.6986C15.3939 7.74977 15.5061 7.82478 15.6007 7.91933C15.6952 8.01388 15.7702 8.12613 15.8214 8.24967C15.8726 8.3732 15.8989 8.50561 15.8989 8.63933C15.8989 8.77304 15.8726 8.90545 15.8214 9.02899C15.7702 9.15253 15.6952 9.26478 15.6007 9.35933L9.60066 15.3593L7.68066 15.8393L8.16066 13.9193L14.1607 7.91933Z" stroke="#25215B" stroke-linecap="round" stroke-linejoin="round"/>
</svg>
