<svg width="18" height="18" viewBox="0 0 18 18" fill="none" xmlns="http://www.w3.org/2000/svg">
<path d="M12 18C10.0333 18 8.28333 17.4417 6.75 16.325C5.21667 15.2083 4.13333 13.7667 3.5 12H1C0.716667 12 0.479333 11.904 0.288 11.712C0.0960001 11.5207 0 11.2833 0 11C0 10.7167 0.0960001 10.479 0.288 10.287C0.479333 10.0957 0.716667 10 1 10H3.05C3.01667 9.81667 3 9.65 3 9.5V8.5C3 8.35 3.01667 8.18333 3.05 8H1C0.716667 8 0.479333 7.904 0.288 7.712C0.0960001 7.52067 0 7.28333 0 7C0 6.71667 0.0960001 6.479 0.288 6.287C0.479333 6.09567 0.716667 6 1 6H3.5C4.13333 4.23333 5.21667 2.79167 6.75 1.675C8.28333 0.558334 10.0333 0 12 0C12.9167 0 13.7877 0.125 14.613 0.375C15.4377 0.625 16.2083 0.983333 16.925 1.45C17.225 1.65 17.3877 1.93333 17.413 2.3C17.4377 2.66667 17.3083 2.99167 17.025 3.275C16.825 3.475 16.571 3.59167 16.263 3.625C15.9543 3.65833 15.6583 3.59167 15.375 3.425C14.875 3.14167 14.3417 2.91667 13.775 2.75C13.2083 2.58333 12.6167 2.5 12 2.5C10.75 2.5 9.61267 2.821 8.588 3.463C7.56267 4.10433 6.78333 4.95 6.25 6H11C11.2833 6 11.521 6.09567 11.713 6.287C11.9043 6.479 12 6.71667 12 7C12 7.28333 11.9043 7.52067 11.713 7.712C11.521 7.904 11.2833 8 11 8H5.6C5.56667 8.18333 5.54167 8.35 5.525 8.5C5.50833 8.65 5.5 8.81667 5.5 9C5.5 9.18333 5.50833 9.35 5.525 9.5C5.54167 9.65 5.56667 9.81667 5.6 10H11C11.2833 10 11.521 10.0957 11.713 10.287C11.9043 10.479 12 10.7167 12 11C12 11.2833 11.9043 11.5207 11.713 11.712C11.521 11.904 11.2833 12 11 12H6.25C6.78333 13.05 7.56267 13.896 8.588 14.538C9.61267 15.1793 10.75 15.5 12 15.5C12.6 15.5 13.1917 15.4167 13.775 15.25C14.3583 15.0833 14.8917 14.8583 15.375 14.575C15.6583 14.4083 15.95 14.3373 16.25 14.362C16.55 14.3873 16.8083 14.5083 17.025 14.725C17.3083 15.0083 17.4377 15.3333 17.413 15.7C17.3877 16.0667 17.225 16.35 16.925 16.55C16.2083 17.0167 15.4377 17.375 14.613 17.625C13.7877 17.875 12.9167 18 12 18Z" fill="#25215B"/>
</svg>
