<svg width="24" height="24" viewBox="0 0 24 24" fill="none" xmlns="http://www.w3.org/2000/svg">
<g clip-path="url(#clip0_5800_15583)">
<path fill-rule="evenodd" clip-rule="evenodd" d="M22.8137 1.18654C22.6083 0.981275 22.3474 0.840429 22.0631 0.781277C21.7788 0.722125 21.4834 0.747238 21.2132 0.853537L1.69445 8.54254C1.40264 8.65728 1.15445 8.86113 0.985213 9.1251C0.815977 9.38906 0.734312 9.69968 0.751844 10.0128C0.769375 10.3258 0.885208 10.6254 1.08286 10.8688C1.28051 11.1122 1.5499 11.2871 1.8527 11.3685L10.3412 13.659L12.6317 22.1475C12.7131 22.4503 12.888 22.7197 13.1314 22.9174C13.3749 23.115 13.6744 23.2309 13.9875 23.2484C14.3005 23.2659 14.6112 23.1843 14.8751 23.015C15.1391 22.8458 15.343 22.5976 15.4577 22.3058L23.1467 2.78704C23.253 2.5168 23.2781 2.22141 23.219 1.93711C23.1598 1.65281 23.019 1.39195 22.8137 1.18654ZM14.0724 21.7298L11.7879 13.2638C11.7199 13.0123 11.5871 12.7831 11.4029 12.5989C11.2187 12.4146 10.9894 12.2819 10.7379 12.2138L2.27045 9.92779L21.7427 2.25754L14.0724 21.7298Z" fill="#25215B" stroke="#25215B" stroke-width="0.5"/>
</g>
<defs>
<clipPath id="clip0_5800_15583">
<rect width="24" height="24" fill="white"/>
</clipPath>
</defs>
</svg>
