<svg width="24" height="24" viewBox="0 0 24 24" fill="none" xmlns="http://www.w3.org/2000/svg">
<path d="M22.744 1.60742C22.4587 1.57847 22.1714 1.63736 21.9204 1.77622C21.7979 1.37878 21.5032 1.05748 21.1178 0.901149C20.7325 0.744822 20.2972 0.770035 19.9324 0.969817C19.7294 0.340963 19.1142 -0.0602474 18.4568 0.0074168C18.0291 0.0560422 17.6481 0.300457 17.4256 0.669017C17.0931 0.422837 16.6673 0.339729 16.2665 0.442799C15.8658 0.54587 15.5329 0.824129 15.3604 1.20022H11.4212C11.3483 1.19968 11.2768 1.17935 11.2144 1.14142L9.59724 0.173817C9.41132 0.0614557 9.19847 0.00147114 8.98124 0.000216802H3.05764C2.32567 -0.00958913 1.70236 0.530327 1.60764 1.25622C1.57874 1.54166 1.63763 1.82913 1.77644 2.08022C1.37889 2.20257 1.05748 2.49728 0.901196 2.88275C0.744912 3.26823 0.770341 3.70356 0.970443 4.06822C0.340616 4.27057 -0.061163 4.88667 0.00764279 5.54462C0.0560908 5.97243 0.300552 6.35346 0.669243 6.57582C0.466258 6.85578 0.373164 7.20054 0.407643 7.54462C0.464791 8.02288 0.76445 8.4379 1.20044 8.64262V12.5802C1.19974 12.6529 1.17928 12.7239 1.14124 12.7858L0.165243 14.4114C0.0590233 14.5967 0.00227051 14.8062 0.000442783 15.0198V20.9434C-0.00877125 21.6752 0.53113 22.2982 1.25684 22.393C1.54212 22.4212 1.82924 22.3623 2.08044 22.2242C2.20289 22.6218 2.49768 22.9432 2.88321 23.0995C3.26875 23.2557 3.70413 23.2303 4.06884 23.0302C4.25417 23.609 4.79273 24.0013 5.40044 24.0002C5.88266 24.0003 6.32924 23.7463 6.57564 23.3318C6.90852 23.578 7.3346 23.661 7.73556 23.5579C8.13652 23.4548 8.46966 23.1764 8.64244 22.8002H12.5796C12.6526 22.8008 12.7241 22.8211 12.7864 22.859L14.4036 23.8274C14.5897 23.9394 14.8025 23.9989 15.0196 23.9998H20.9432C21.6752 24.0096 22.2985 23.4697 22.3932 22.7438C22.4221 22.4585 22.3632 22.1712 22.2244 21.9202C22.622 21.7979 22.9434 21.5032 23.0997 21.1177C23.256 20.7322 23.2305 20.2969 23.0304 19.9322C23.66 19.7299 24.0616 19.1143 23.9932 18.4566C23.9448 18.0288 23.7003 17.6478 23.3316 17.4254C23.5346 17.1455 23.6277 16.8007 23.5932 16.4566C23.5356 15.9789 23.236 15.5646 22.8004 15.3602V11.4202C22.8013 11.3474 22.8216 11.2761 22.8592 11.2138L23.828 9.59702C23.94 9.41083 23.9995 9.19786 24.0004 8.98062V3.05702C24.0097 2.32519 23.4698 1.70227 22.744 1.60742ZM0.803643 5.46542C0.785111 5.29589 0.839598 5.12648 0.953486 4.99954C1.06737 4.87259 1.2299 4.80012 1.40044 4.80022H4.00044C4.22136 4.80022 4.40044 4.62113 4.40044 4.40022C4.40044 4.1793 4.22136 4.00022 4.00044 4.00022H2.20044C2.02993 4.00062 1.86729 3.92845 1.75318 3.80175C1.63906 3.67504 1.58425 3.50576 1.60244 3.33622C1.65363 3.01743 1.93503 2.78722 2.25764 2.80022H4.80044C5.02136 2.80022 5.20044 2.62113 5.20044 2.40022C5.20044 2.1793 5.02136 2.00022 4.80044 2.00022H3.00044C2.82993 2.00062 2.66729 1.92845 2.55318 1.80175C2.43906 1.67504 2.38425 1.50576 2.40244 1.33622C2.45346 1.01733 2.73497 0.787039 3.05764 0.800217H8.98124C9.05415 0.80077 9.12552 0.821241 9.18764 0.859417L10.8052 1.82822C10.9914 1.93983 11.2042 1.99925 11.4212 2.00022H15.2004V5.55582L14.5076 4.98862C13.9878 4.59181 13.2565 4.63201 12.7832 5.08342C12.4318 5.4242 12.3097 5.93771 12.47 6.40022H11.1288C10.814 6.40154 10.5124 6.52652 10.2888 6.74822L6.52444 10.4818L6.51644 10.4898L6.35004 10.6546C6.15493 10.8454 5.84253 10.8432 5.65004 10.6498C5.47436 10.4734 5.45722 10.1939 5.61004 9.99742L6.71004 8.65342C6.80786 8.53379 6.82802 8.36853 6.76184 8.2289C6.69565 8.08926 6.55497 8.00024 6.40044 8.00022H1.85764C1.53555 8.0128 1.25479 7.78287 1.20364 7.46462C1.18535 7.29521 1.23995 7.12603 1.35381 6.99927C1.46767 6.87251 1.63006 6.80014 1.80044 6.80022H4.00044C4.22136 6.80022 4.40044 6.62113 4.40044 6.40022C4.40044 6.1793 4.22136 6.00022 4.00044 6.00022H1.45764C1.13587 6.01267 0.855319 5.78325 0.803643 5.46542ZM16.8004 13.063L13.1484 16.6846C13.075 16.758 12.9755 16.7994 12.8716 16.7998H10.9372L7.31604 13.1494C7.24242 13.0759 7.20087 12.9763 7.20044 12.8722V10.9362L10.8512 7.31582C10.9248 7.24206 11.0247 7.20049 11.1288 7.20022H13.0648L16.686 10.8506C16.7591 10.9246 16.8002 11.0243 16.8004 11.1282V13.063ZM7.46124 22.797C7.29283 22.8152 7.12468 22.7605 6.99924 22.6466C6.87322 22.5323 6.80107 22.3703 6.80044 22.2002V22.1942V20.0002C6.80044 19.7793 6.62136 19.6002 6.40044 19.6002C6.17953 19.6002 6.00044 19.7793 6.00044 20.0002V22.2002V22.2058V22.5438C6.01143 22.867 5.77955 23.1477 5.46004 23.1978C5.29198 23.2161 5.12415 23.1613 4.99924 23.0474C4.87293 22.933 4.80075 22.7706 4.80044 22.6002V21.8002V21.7922V20.0002C4.80044 19.7793 4.62136 19.6002 4.40044 19.6002C4.17953 19.6002 4.00044 19.7793 4.00044 20.0002V21.8002V21.805C3.99938 21.9746 3.92657 22.1359 3.80004 22.2488C3.67352 22.3618 3.50509 22.4159 3.33644 22.3978C3.01772 22.3468 2.78747 22.0655 2.80044 21.743V21.0002V20.9942V19.2002C2.80044 18.9793 2.62136 18.8002 2.40044 18.8002C2.17953 18.8002 2.00044 18.9793 2.00044 19.2002V21.0002V21.0038C1.9997 21.1736 1.9271 21.335 1.80062 21.4483C1.67414 21.5615 1.50563 21.6158 1.33684 21.5978C1.01821 21.5468 0.787889 21.2659 0.800443 20.9434V15.0198C0.801059 14.9478 0.819912 14.877 0.855243 14.8142L1.82844 13.1958C1.93983 13.0097 1.99923 12.7971 2.00044 12.5802V8.80022H5.55564L4.98804 9.49342C4.62211 9.93851 4.59609 10.5724 4.9243 11.046C5.25251 11.5196 5.85521 11.7178 6.40044 11.5314V12.8722C6.40177 13.187 6.52675 13.4887 6.74844 13.7122L10.4788 17.4722C10.4832 17.477 10.4876 17.4814 10.4924 17.4858L10.6552 17.6498C10.7954 17.7925 10.8362 18.0054 10.7586 18.1897C10.6811 18.3741 10.5004 18.4938 10.3004 18.4934C10.1916 18.4939 10.0858 18.4574 10.0004 18.3898L8.65684 17.2902C8.53724 17.1903 8.37052 17.169 8.22961 17.2355C8.08871 17.3021 7.99928 17.4444 8.00044 17.6002V22.143C8.01151 22.4659 7.78027 22.7463 7.46124 22.797ZM23.1972 18.535C23.2158 18.7045 23.1613 18.874 23.0474 19.0009C22.9335 19.1278 22.771 19.2003 22.6004 19.2002H20.0004C19.7795 19.2002 19.6004 19.3793 19.6004 19.6002C19.6004 19.8211 19.7795 20.0002 20.0004 20.0002H21.8004C21.971 19.9998 22.1336 20.072 22.2477 20.1987C22.3618 20.3254 22.4166 20.4947 22.3984 20.6642C22.3473 20.983 22.0659 21.2132 21.7432 21.2002H19.2004C18.9795 21.2002 18.8004 21.3793 18.8004 21.6002C18.8004 21.8211 18.9795 22.0002 19.2004 22.0002H21.0004C21.171 21.9998 21.3336 22.072 21.4477 22.1987C21.5618 22.3254 21.6166 22.4947 21.5984 22.6642C21.5474 22.9831 21.2659 23.2134 20.9432 23.2002H15.0196C14.9467 23.1997 14.8754 23.1792 14.8132 23.141L13.1956 22.1722C13.0095 22.0606 12.7967 22.0012 12.5796 22.0002H8.80044V18.4438L9.49324 19.011C10.0127 19.4094 10.745 19.3691 11.2176 18.9162C11.5691 18.5758 11.6917 18.0627 11.532 17.6002H12.872C13.1869 17.5989 13.4885 17.4739 13.712 17.2522L17.4752 13.5202L17.4892 13.5066L17.652 13.3466C17.8472 13.1559 18.1596 13.158 18.352 13.3514C18.5277 13.5278 18.5449 13.8073 18.392 14.0038L17.292 15.3478C17.1949 15.4673 17.1749 15.6319 17.2407 15.7712C17.3065 15.9104 17.4464 15.9995 17.6004 16.0002H22.1432C22.4653 15.9876 22.7461 16.2176 22.7972 16.5358C22.8155 16.7052 22.7609 16.8744 22.6471 17.0012C22.5332 17.1279 22.3708 17.2003 22.2004 17.2002H20.0004C19.7795 17.2002 19.6004 17.3793 19.6004 17.6002C19.6004 17.8211 19.7795 18.0002 20.0004 18.0002H22.5444C22.8658 17.9884 23.1456 18.2177 23.1972 18.535ZM23.2004 8.98062C23.1998 9.05346 23.1795 9.12478 23.1416 9.18702L22.1724 10.8046C22.0609 10.9907 22.0015 11.2033 22.0004 11.4202V15.2002H18.444L19.0116 14.507C19.4237 13.9921 19.3825 13.2496 18.916 12.7834C18.5666 12.4481 18.0614 12.3317 17.6004 12.4802V11.1282C17.5991 10.8134 17.4741 10.5117 17.2524 10.2882L13.5204 6.52262L13.5128 6.51502L13.3476 6.34862C13.2539 6.25604 13.2016 6.12953 13.2025 5.9978C13.2034 5.86608 13.2575 5.7403 13.3524 5.64902C13.5312 5.47844 13.807 5.46154 14.0052 5.60902L15.3488 6.70862C15.4683 6.8053 15.6326 6.82496 15.7716 6.75921C15.9105 6.69346 15.9995 6.55392 16.0004 6.40022V1.85742C15.9881 1.53526 16.2181 1.25455 16.5364 1.20342C16.7058 1.18525 16.8749 1.2399 17.0015 1.35375C17.1282 1.4676 17.2005 1.62991 17.2004 1.80022V4.00022C17.2004 4.22113 17.3795 4.40022 17.6004 4.40022C17.8214 4.40022 18.0004 4.22113 18.0004 4.00022V1.45742C17.9879 1.1352 18.218 0.854386 18.5364 0.803417C18.7058 0.78525 18.8749 0.839904 19.0015 0.95375C19.1282 1.0676 19.2005 1.22991 19.2004 1.40022V4.00022C19.2004 4.22113 19.3795 4.40022 19.6004 4.40022C19.8214 4.40022 20.0004 4.22113 20.0004 4.00022V2.20022C20.0002 2.02977 20.0724 1.86724 20.1991 1.75322C20.3258 1.63919 20.495 1.58444 20.6644 1.60262C20.9832 1.65362 21.2134 1.9349 21.2004 2.25742V4.80022C21.2004 5.02113 21.3795 5.20022 21.6004 5.20022C21.8214 5.20022 22.0004 5.02113 22.0004 4.80022V3.00022C22.0002 2.82977 22.0724 2.66724 22.1991 2.55322C22.3258 2.43919 22.495 2.38444 22.6644 2.40262C22.9829 2.45377 23.213 2.73471 23.2004 3.05702V8.98062Z" fill="#25215B"/>
</svg>
