<svg width="19" height="19" viewBox="0 0 19 19" fill="none" xmlns="http://www.w3.org/2000/svg">
<path d="M14.75 3H4.25C3.42157 3 2.75 3.67157 2.75 4.5V15C2.75 15.8284 3.42157 16.5 4.25 16.5H14.75C15.5784 16.5 16.25 15.8284 16.25 15V4.5C16.25 3.67157 15.5784 3 14.75 3Z" stroke="#25215B" stroke-width="2" stroke-linecap="round" stroke-linejoin="round"/>
<path d="M16.25 12L12.5 8.25L4.25 16.5" stroke="#25215B" stroke-width="2" stroke-linecap="round" stroke-linejoin="round"/>
<path d="M6.875 8.25C7.49632 8.25 8 7.74632 8 7.125C8 6.50368 7.49632 6 6.875 6C6.25368 6 5.75 6.50368 5.75 7.125C5.75 7.74632 6.25368 8.25 6.875 8.25Z" stroke="#25215B" stroke-width="2" stroke-linecap="round" stroke-linejoin="round"/>
</svg>
