<svg width="16" height="16" viewBox="0 0 16 16" fill="none" xmlns="http://www.w3.org/2000/svg">
<path fill-rule="evenodd" clip-rule="evenodd" d="M12.0759 3.11055H10.2835L8.89045 1.67356C8.45975 1.22918 7.7501 1.21834 7.30571 1.64903L5.79856 3.10998H4.23093C3.61199 3.10998 3.11055 3.61199 3.11055 4.23093V5.71641L1.67356 7.10947C1.22918 7.54017 1.21834 8.24982 1.64903 8.69421L3.10998 10.2014V12.0753C3.10998 12.6943 3.61199 13.1963 4.23036 13.1963H6.01362L7.10947 14.3264C7.54017 14.7707 8.24982 14.7816 8.69421 14.3509L9.88533 13.1963H12.0753C12.6943 13.1963 13.1957 12.6943 13.1957 12.0753V9.9863L14.3258 8.89045C14.7702 8.45975 14.781 7.7501 14.3503 7.30571L13.1957 6.11459V4.23093C13.1957 3.61199 12.6943 3.10998 12.0753 3.10998L12.0759 3.11055Z" stroke="#25215B" stroke-width="1.5" stroke-miterlimit="2.61313" stroke-linecap="round" stroke-linejoin="round"/>
<path d="M11.1422 5.91211L7.0337 10.0211L5.16602 8.15345" stroke="#25215B" stroke-width="1.5" stroke-miterlimit="2.61313" stroke-linecap="round" stroke-linejoin="round"/>
</svg>
