<svg width="24" height="24" viewBox="0 0 24 24" fill="none" xmlns="http://www.w3.org/2000/svg">
<path d="M12.058 0.00010139C11.5163 0.000602651 10.9759 0.0532672 10.4443 0.157366C11.9147 0.213457 13.342 0.668886 14.5731 1.47477C15.8043 2.28066 16.7927 3.40659 17.4323 4.73171C17.5219 4.9096 17.6018 5.0922 17.6717 5.27872C17.8414 5.31421 18.0164 5.31556 18.1866 5.28269C18.3569 5.24982 18.5188 5.18338 18.6631 5.08726C18.8292 4.95286 18.9615 4.78143 19.0493 4.58669C19.1372 4.39196 19.1782 4.17935 19.1691 3.9659C18.4463 2.75123 17.4188 1.74637 16.1884 1.0508C14.9579 0.355219 13.5672 -0.00696271 12.1537 0.00010139H12.058Z" fill="url(#paint0_linear_2305_28539)"/>
<path d="M18.6629 5.053C18.5187 5.14913 18.3567 5.21556 18.1865 5.24843C18.0163 5.2813 17.8412 5.27995 17.6715 5.24446C18.2076 6.5879 18.3743 8.05037 18.1542 9.47999C17.9342 10.9096 17.3355 12.2543 16.4202 13.3743L11.1348 19.8769L12.1125 21.0666L18.4852 13.2171C19.4653 12.02 20.0816 10.567 20.261 9.03027C20.4404 7.49355 20.1753 5.93763 19.4971 4.54702C19.4013 4.33493 19.2917 4.12936 19.1689 3.93164C19.178 4.14509 19.137 4.3577 19.0492 4.55243C18.9613 4.74717 18.829 4.91861 18.6629 5.053Z" fill="url(#paint1_linear_2305_28539)"/>
<path d="M16.7694 6.16739C17.1264 6.99108 17.2477 7.89771 17.1197 8.78626C16.9917 9.67482 16.6196 10.5104 16.0447 11.1999L10.0618 18.5639L11.1353 19.8767L16.4207 13.3742C17.336 12.2541 17.9347 10.9095 18.1547 9.47985C18.3748 8.05023 18.2081 6.58776 17.672 5.24432C17.1147 5.12784 16.5952 4.874 16.1609 4.50586C16.4361 5.03047 16.6407 5.58915 16.7694 6.16739Z" fill="url(#paint2_linear_2305_28539)"/>
<path d="M7.91486 1.08715C7.45566 1.35491 7.02494 1.66878 6.62939 2.0239C7.27068 1.59452 7.98406 1.28416 8.73537 1.10766C9.23259 0.988875 9.7421 0.929203 10.2533 0.929882C11.4674 0.932742 12.6575 1.2674 13.6951 1.89768C14.7327 2.52796 15.5783 3.42989 16.1405 4.50594C16.5748 4.87408 17.0942 5.12792 17.6516 5.2444C17.5817 5.05788 17.5018 4.87528 17.4123 4.69739C16.7742 3.37525 15.789 2.2513 14.5618 1.44562C13.3346 0.639936 11.9116 0.182797 10.4448 0.123047C9.5534 0.300377 8.69818 0.626284 7.91486 1.08715Z" fill="url(#paint3_linear_2305_28539)"/>
<path d="M6.71796 2.0243C5.92349 2.73112 5.27736 3.58875 4.81711 4.54737C4.13906 5.93841 3.87463 7.49487 4.05523 9.03178C4.23583 10.5687 4.85388 12.0215 5.83591 13.2174L9.80171 18.12C10.1577 17.6724 10.4163 17.1554 10.5607 16.602L7.7436 13.1285C6.89395 12.0898 6.35939 10.8296 6.20308 9.49681C6.04678 8.164 6.27527 6.8143 6.86155 5.6072C7.26244 4.7754 7.82765 4.03342 8.52309 3.42601C9.45597 2.77196 10.5634 2.41235 11.7026 2.39353C12.6315 2.39482 13.5464 2.61981 14.37 3.04945C15.1936 3.4791 15.9016 4.10078 16.4342 4.8619C16.0417 3.98255 15.4626 3.1991 14.7371 2.5659C14.0116 1.9327 13.157 1.46489 12.2326 1.19494C11.3083 0.92498 10.3363 0.859332 9.384 1.00254C8.43174 1.14576 7.52203 1.4944 6.71796 2.0243Z" fill="url(#paint4_linear_2305_28539)"/>
<path d="M8.45468 3.26196C7.75739 3.89444 7.19263 4.65908 6.79315 5.51152C5.97227 7.24592 5.85464 9.23076 6.46495 11.05C6.73374 11.8606 7.14343 12.6175 7.6752 13.2859L10.4923 16.8687C10.6765 16.1172 10.6505 15.3295 10.4171 14.5918C10.2664 14.1265 10.035 13.6914 9.73331 13.3064L8.18801 11.344C7.5841 10.5935 7.20408 9.68794 7.0916 8.73124C6.97912 7.77455 7.13874 6.80553 7.55212 5.93545C7.94452 5.07212 8.57632 4.33946 9.37257 3.82439C10.1688 3.30931 11.0961 3.03343 12.0444 3.02948H12.2017C13.1811 3.03264 14.1206 3.41778 14.8205 4.10298C15.4896 4.67619 16.1179 5.29535 16.7008 5.95597C16.7207 5.97977 16.739 6.00489 16.7555 6.03118C16.6595 5.61679 16.5268 5.21177 16.3589 4.82093C15.8383 4.04034 15.1339 3.39956 14.3077 2.95486C13.4815 2.51016 12.5588 2.27516 11.6205 2.27051C10.4897 2.27621 9.38672 2.62164 8.45468 3.26196Z" fill="url(#paint5_linear_2305_28539)"/>
<path d="M12.6736 21.4635L12.6189 21.5318L12.9608 21.9489L14.6633 24.0002L15.0531 23.5216L15.1009 23.46L14.0069 22.0925L13.665 21.6754L13.7197 21.6002L15.2172 19.7472C15.0507 19.4894 14.8454 19.2588 14.6086 19.0635L12.6736 21.4635Z" fill="url(#paint6_linear_2305_28539)"/>
<path d="M13.7197 21.6547L13.665 21.73L14.0069 22.147L15.1009 23.5146C15.306 23.2438 15.4654 22.9412 15.5727 22.6188C15.8363 21.911 15.8363 21.1319 15.5727 20.424C15.4918 20.2041 15.3838 19.9951 15.2514 19.8018L13.7197 21.6547Z" fill="url(#paint7_linear_2305_28539)"/>
<defs>
<linearGradient id="paint0_linear_2305_28539" x1="13.7332" y1="3.44624" x2="16.3725" y2="0.813773" gradientUnits="userSpaceOnUse">
<stop stop-color="#00FFCC"/>
<stop offset="1" stop-color="#009174"/>
</linearGradient>
<linearGradient id="paint1_linear_2305_28539" x1="11.1348" y1="12.4991" x2="20.3176" y2="12.4991" gradientUnits="userSpaceOnUse">
<stop stop-color="#00FFCC"/>
<stop offset="1" stop-color="#009174"/>
</linearGradient>
<linearGradient id="paint2_linear_2305_28539" x1="10.0618" y1="12.1913" x2="18.2532" y2="12.1913" gradientUnits="userSpaceOnUse">
<stop stop-color="#00FFCC"/>
<stop offset="1" stop-color="#009174"/>
</linearGradient>
<linearGradient id="paint3_linear_2305_28539" x1="12.1473" y1="5.2444" x2="12.1473" y2="0.123047" gradientUnits="userSpaceOnUse">
<stop stop-color="#009174"/>
<stop offset="1" stop-color="#00FFCC"/>
</linearGradient>
<linearGradient id="paint4_linear_2305_28539" x1="10.2188" y1="18.1063" x2="10.2188" y2="0.93029" gradientUnits="userSpaceOnUse">
<stop stop-color="#FFBF00"/>
<stop offset="1" stop-color="#CC059C"/>
</linearGradient>
<linearGradient id="paint5_linear_2305_28539" x1="7.18289" y1="4.52691" x2="15.0119" y2="12.3491" gradientUnits="userSpaceOnUse">
<stop stop-color="#FFBF00"/>
<stop offset="1" stop-color="#E85500"/>
</linearGradient>
<linearGradient id="paint6_linear_2305_28539" x1="12.6189" y1="21.5729" x2="15.2172" y2="21.5729" gradientUnits="userSpaceOnUse">
<stop stop-color="#FFBF00"/>
<stop offset="1" stop-color="#CC059C"/>
</linearGradient>
<linearGradient id="paint7_linear_2305_28539" x1="15.942" y1="22.0992" x2="14.0753" y2="21.0188" gradientUnits="userSpaceOnUse">
<stop stop-color="#FFBF00"/>
<stop offset="1" stop-color="#E85500"/>
</linearGradient>
</defs>
</svg>
