<svg width="120" height="33" viewBox="0 0 120 33" fill="none" xmlns="http://www.w3.org/2000/svg">
<path d="M2.7957 1.37185C3.29465 1.37185 3.78239 1.51981 4.19725 1.79701C4.61211 2.07421 4.93546 2.46821 5.1264 2.92917C5.31734 3.39014 5.36729 3.89738 5.26995 4.38674C5.17261 4.8761 4.93235 5.32561 4.57954 5.67842C4.22673 6.03122 3.77722 6.27149 3.28786 6.36883C2.7985 6.46617 2.29126 6.41621 1.83029 6.22527C1.36933 6.03433 0.97533 5.71099 0.698129 5.29613C0.420928 4.88127 0.272973 4.39353 0.272973 3.89458C0.271529 3.56288 0.335796 3.23419 0.462064 2.92747C0.588331 2.62074 0.774099 2.34207 1.00864 2.10752C1.24319 1.87298 1.52186 1.68721 1.82859 1.56094C2.13531 1.43468 2.46401 1.37041 2.7957 1.37185Z" fill="#FEBF10"/>
<path d="M5.03735 23.2418C5.03735 23.8364 4.80116 24.4066 4.38073 24.827C3.96031 25.2474 3.3901 25.4836 2.79553 25.4836C2.20096 25.4836 1.63075 25.2474 1.21032 24.827C0.789901 24.4066 0.553711 23.8364 0.553711 23.2418V9.78271C0.553711 9.18815 0.789901 8.61793 1.21032 8.19751C1.63075 7.77708 2.20096 7.54089 2.79553 7.54089C3.3901 7.54089 3.96031 7.77708 4.38073 8.19751C4.80116 8.61793 5.03735 9.18815 5.03735 9.78271V23.2418Z" fill="#25235B"/>
<path d="M12.3277 23.2419C12.3074 23.8233 12.0622 24.3741 11.6437 24.7783C11.2253 25.1824 10.6662 25.4082 10.0845 25.4082C9.50274 25.4082 8.94372 25.1824 8.52526 24.7783C8.1068 24.3741 7.86158 23.8233 7.84131 23.2419V3.06012C7.86158 2.47872 8.1068 1.92791 8.52526 1.52379C8.94372 1.11967 9.50274 0.893799 10.0845 0.893799C10.6662 0.893799 11.2253 1.11967 11.6437 1.52379C12.0622 1.92791 12.3074 2.47872 12.3277 3.06012V23.2419Z" fill="#25235B"/>
<path d="M20.7659 23.2419C20.7659 23.8364 20.5297 24.4067 20.1093 24.8271C19.6888 25.2475 19.1186 25.4837 18.524 25.4837C17.9295 25.4837 17.3593 25.2475 16.9388 24.8271C16.5184 24.4067 16.2822 23.8364 16.2822 23.2419V3.06006C16.2822 2.46549 16.5184 1.89528 16.9388 1.47485C17.3593 1.05443 17.9295 0.818237 18.524 0.818237C19.1186 0.818237 19.6888 1.05443 20.1093 1.47485C20.5297 1.89528 20.7659 2.46549 20.7659 3.06006V23.2419Z" fill="#25235B"/>
<path d="M26.9622 1.37184C27.4611 1.37184 27.9489 1.5198 28.3637 1.797C28.7786 2.0742 29.102 2.4682 29.2929 2.92916C29.4838 3.39013 29.5338 3.89737 29.4364 4.38673C29.3391 4.87609 29.0988 5.3256 28.746 5.6784C28.3932 6.03121 27.9437 6.27148 27.4544 6.36882C26.965 6.46616 26.4578 6.4162 25.9968 6.22526C25.5358 6.03432 25.1418 5.71098 24.8646 5.29612C24.5874 4.88126 24.4395 4.39351 24.4395 3.89457C24.4384 3.56297 24.5029 3.23445 24.6293 2.92789C24.7557 2.62133 24.9415 2.34279 25.1759 2.10832C25.4104 1.87385 25.689 1.68807 25.9955 1.56167C26.3021 1.43527 26.6306 1.37076 26.9622 1.37184Z" fill="#FEBF10"/>
<path d="M29.2066 23.2419C29.1863 23.8233 28.9411 24.3741 28.5226 24.7782C28.1042 25.1823 27.5451 25.4082 26.9634 25.4082C26.3816 25.4082 25.8226 25.1823 25.4042 24.7782C24.9857 24.3741 24.7405 23.8233 24.7202 23.2419V9.78278C24.7405 9.20138 24.9857 8.65057 25.4042 8.24645C25.8226 7.84232 26.3816 7.61646 26.9634 7.61646C27.5451 7.61646 28.1042 7.84232 28.5226 8.24645C28.9411 8.65057 29.1863 9.20138 29.2066 9.78278V23.2419Z" fill="#25235B"/>
<path d="M41.2883 25.4837C39.8126 25.484 38.3595 25.1204 37.0579 24.4249C35.7563 23.7295 34.6463 22.7238 33.8263 21.4969C33.0063 20.27 32.5015 18.8598 32.3568 17.3912C32.212 15.9226 32.4317 14.4409 32.9964 13.0775C33.5611 11.7141 34.4533 10.511 35.5941 9.57483C36.7348 8.63866 38.0889 7.99831 39.5363 7.7105C40.9837 7.4227 42.4797 7.49633 43.8918 7.92487C45.304 8.35341 46.5886 9.12363 47.6319 10.1673C47.9459 10.4792 48.1601 10.8774 48.2474 11.3113C48.3347 11.7451 48.2911 12.1952 48.1222 12.6042C47.9534 13.0133 47.6667 13.363 47.2988 13.6089C46.9308 13.8548 46.4981 13.9859 46.0556 13.9855C45.7604 13.9925 45.4672 13.9365 45.1954 13.8213C44.9236 13.7061 44.6794 13.5342 44.4792 13.3173C44.0637 12.8953 43.5663 12.5627 43.0176 12.3399C42.4688 12.1171 41.8804 12.0089 41.2883 12.0218C40.0984 12.0218 38.9573 12.4945 38.1159 13.3359C37.2746 14.1772 36.8019 15.3183 36.8019 16.5082C36.8019 17.6981 37.2746 18.8392 38.1159 19.6805C38.9573 20.5219 40.0984 20.9946 41.2883 20.9946C42.4812 20.9981 43.6275 20.5317 44.4792 19.6964C44.685 19.4868 44.9302 19.3201 45.2008 19.2059C45.4713 19.0917 45.7619 19.0322 46.0556 19.0309C46.6453 19.0468 47.2065 19.2886 47.6231 19.7063C48.0398 20.124 48.2802 20.6857 48.2946 21.2755C48.294 21.569 48.2351 21.8595 48.1214 22.1301C48.0076 22.4007 47.8412 22.646 47.6319 22.8518C46.7993 23.6858 45.8105 24.3475 44.722 24.7991C43.6336 25.2507 42.4667 25.4833 41.2883 25.4837Z" fill="#25235B"/>
<path d="M58.3014 5.72729C57.7097 5.73143 57.1198 5.7917 56.5396 5.9073C58.1558 5.96758 59.7254 6.46476 61.0816 7.34598C62.4377 8.2272 63.5297 9.45951 64.2414 10.9118C64.3431 11.1077 64.4341 11.3089 64.5141 11.5146C64.7011 11.5534 64.894 11.5543 65.0814 11.5173C65.2687 11.4803 65.4468 11.4061 65.605 11.2991C65.7859 11.1514 65.9306 10.9643 66.028 10.752C66.1253 10.5398 66.1728 10.308 66.1668 10.0746C65.365 8.74539 64.2321 7.6469 62.8788 6.88638C61.5256 6.12586 59.9982 5.72931 58.4459 5.73548L58.3014 5.72729Z" fill="url(#paint0_linear_4877_1754)"/>
<mask id="mask0_4877_1754" style="mask-type:luminance" maskUnits="userSpaceOnUse" x="56" y="5" width="11" height="7">
<path d="M58.3014 5.72729C57.7097 5.73143 57.1198 5.7917 56.5396 5.9073C58.1558 5.96758 59.7254 6.46476 61.0816 7.34598C62.4377 8.2272 63.5297 9.45951 64.2414 10.9118C64.3431 11.1077 64.4341 11.3089 64.5141 11.5146C64.7011 11.5534 64.894 11.5543 65.0814 11.5173C65.2687 11.4803 65.4468 11.4061 65.605 11.2991C65.7859 11.1514 65.9306 10.9643 66.028 10.752C66.1253 10.5398 66.1728 10.308 66.1668 10.0746C65.365 8.74539 64.2321 7.6469 62.8788 6.88638C61.5256 6.12586 59.9982 5.72931 58.4459 5.73548L58.3014 5.72729Z" fill="white"/>
</mask>
<g mask="url(#mask0_4877_1754)">
<path d="M56.6785 4.53003L55.8003 11.4764L65.9948 12.7637L66.8757 5.8173L56.6785 4.53003Z" fill="url(#paint1_linear_4877_1754)"/>
</g>
<path d="M65.583 11.291C65.4248 11.3979 65.2467 11.4721 65.0594 11.5091C64.872 11.5461 64.6791 11.5452 64.4921 11.5064C65.084 12.975 65.2681 14.5763 65.0247 16.1409C64.7813 17.7055 64.1195 19.1752 63.1094 20.3946L57.2866 27.5128L58.3612 28.8164L65.3866 20.2282C66.4678 18.9223 67.1487 17.3319 67.3476 15.6482C67.5464 13.9645 67.2547 12.2592 66.5075 10.7373C66.3957 10.5082 66.2757 10.2873 66.1448 10.0664C66.1508 10.2999 66.1033 10.5316 66.0059 10.7438C65.9086 10.9561 65.7639 11.1433 65.583 11.291Z" fill="url(#paint2_linear_4877_1754)"/>
<mask id="mask1_4877_1754" style="mask-type:luminance" maskUnits="userSpaceOnUse" x="57" y="10" width="11" height="19">
<path d="M65.583 11.291C65.4248 11.3979 65.2467 11.4721 65.0594 11.5091C64.872 11.5461 64.6791 11.5452 64.4921 11.5064C65.084 12.975 65.2681 14.5763 65.0247 16.1409C64.7813 17.7055 64.1195 19.1752 63.1094 20.3946L57.2866 27.5128L58.3612 28.8164L65.3866 20.2282C66.4678 18.9223 67.1487 17.3319 67.3476 15.6482C67.5464 13.9645 67.2547 12.2592 66.5075 10.7373C66.3957 10.5082 66.2757 10.2873 66.1448 10.0664C66.1508 10.2999 66.1033 10.5316 66.0059 10.7438C65.9086 10.9561 65.7639 11.1433 65.583 11.291Z" fill="white"/>
</mask>
<g mask="url(#mask1_4877_1754)">
<path d="M57.453 8.73279L54.9575 28.5219L67.863 30.1473L70.3584 10.361L57.453 8.73279Z" fill="url(#paint3_linear_4877_1754)"/>
</g>
<path d="M63.4967 12.5155C63.8898 13.4167 64.0231 14.41 63.8814 15.383C63.7397 16.3561 63.3287 17.2701 62.6948 18.0218L56.103 26.0891L57.2867 27.5236L63.1094 20.4055C64.1195 19.1861 64.7813 17.7164 65.0247 16.1518C65.2681 14.5872 65.0841 12.9859 64.4921 11.5173C63.8756 11.3875 63.301 11.1063 62.8203 10.6991C63.1263 11.2734 63.3537 11.8861 63.4967 12.5209" fill="url(#paint4_linear_4877_1754)"/>
<mask id="mask2_4877_1754" style="mask-type:luminance" maskUnits="userSpaceOnUse" x="56" y="10" width="10" height="18">
<path d="M63.4967 12.5155C63.8898 13.4167 64.0231 14.41 63.8814 15.383C63.7397 16.3561 63.3287 17.2701 62.6948 18.0218L56.103 26.0891L57.2867 27.5236L63.1094 20.4055C64.1195 19.1861 64.7813 17.7164 65.0247 16.1518C65.2681 14.5872 65.0841 12.9859 64.4921 11.5173C63.8756 11.3875 63.301 11.1063 62.8203 10.6991C63.1263 11.2734 63.3537 11.8861 63.4967 12.5209" fill="white"/>
</mask>
<g mask="url(#mask2_4877_1754)">
<path d="M56.2119 9.68188L54.3301 27.3219L65.5828 28.5219L67.4592 10.8819L56.2119 9.68188Z" fill="url(#paint5_linear_4877_1754)"/>
</g>
<path d="M53.7359 6.95735C53.2283 7.24845 52.7521 7.59118 52.3149 7.98008C53.1708 7.42251 54.1335 7.04958 55.1416 6.88512C56.1497 6.72066 57.181 6.76828 58.1696 7.02494C59.1583 7.2816 60.0825 7.74165 60.8833 8.37571C61.6841 9.00977 62.3439 9.8039 62.8204 10.7073C63.3011 11.1146 63.8757 11.3958 64.4922 11.5255C64.4122 11.3199 64.3212 11.1187 64.2195 10.9228C63.5111 9.4716 62.4231 8.23916 61.071 7.35616C59.7189 6.47317 58.1531 5.97254 56.5395 5.90735C55.5572 6.10267 54.6143 6.46029 53.7495 6.96553" fill="url(#paint6_linear_4877_1754)"/>
<mask id="mask3_4877_1754" style="mask-type:luminance" maskUnits="userSpaceOnUse" x="52" y="5" width="13" height="7">
<path d="M53.7359 6.95735C53.2283 7.24845 52.7521 7.59118 52.3149 7.98008C53.1708 7.42251 54.1335 7.04958 55.1416 6.88512C56.1497 6.72066 57.181 6.76828 58.1696 7.02494C59.1583 7.2816 60.0825 7.74165 60.8833 8.37571C61.6841 9.00977 62.3439 9.8039 62.8204 10.7073C63.3011 11.1146 63.8757 11.3958 64.4922 11.5255C64.4122 11.3199 64.3212 11.1187 64.2195 10.9228C63.5111 9.4716 62.4231 8.23916 61.071 7.35616C59.7189 6.47317 58.1531 5.97254 56.5395 5.90735C55.5572 6.10267 54.6143 6.46029 53.7495 6.96553" fill="white"/>
</mask>
<g mask="url(#mask3_4877_1754)">
<path d="M52.4486 4.61462L51.7231 11.4437L64.3586 12.791L65.0868 5.9619L52.4486 4.61462Z" fill="url(#paint7_linear_4877_1754)"/>
</g>
<path d="M52.315 7.98005C51.4383 8.74946 50.7252 9.68709 50.2177 10.7373C49.7067 11.7809 49.407 12.9152 49.3359 14.075C49.2647 15.2348 49.4235 16.3973 49.8032 17.4955C50.1503 18.4874 50.6691 19.4105 51.3359 20.2228L55.6995 25.5682L55.7213 25.541C56.1169 25.0531 56.4025 24.4857 56.5586 23.8773L53.4659 20.0891C52.5273 18.9527 51.9365 17.5697 51.7643 16.1059C51.5921 14.642 51.8458 13.1596 52.495 11.8364C52.9383 10.926 53.5607 10.1143 54.325 9.45005C55.7041 8.53759 57.385 8.19973 59.0096 8.50844C60.6342 8.81716 62.074 9.74805 63.0223 11.1028C62.5856 10.1374 61.9452 9.27792 61.1451 8.58335C60.3449 7.88878 59.404 7.37555 58.3868 7.0789C57.3696 6.78225 56.3003 6.70918 55.2522 6.86473C54.2042 7.02028 53.2022 7.40076 52.315 7.98005Z" fill="url(#paint8_linear_4877_1754)"/>
<mask id="mask4_4877_1754" style="mask-type:luminance" maskUnits="userSpaceOnUse" x="49" y="6" width="15" height="20">
<path d="M52.315 7.98005C51.4383 8.74946 50.7252 9.68709 50.2177 10.7373C49.7067 11.7809 49.407 12.9152 49.3359 14.075C49.2647 15.2348 49.4235 16.3973 49.8032 17.4955C50.1503 18.4874 50.6691 19.4105 51.3359 20.2228L55.6995 25.5682L55.7213 25.541C56.1169 25.0531 56.4025 24.4857 56.5586 23.8773L53.4659 20.0891C52.5273 18.9527 51.9365 17.5697 51.7643 16.1059C51.5921 14.642 51.8458 13.1596 52.495 11.8364C52.9383 10.926 53.5607 10.1143 54.325 9.45005C55.7041 8.53759 57.385 8.19973 59.0096 8.50844C60.6342 8.81716 62.074 9.74805 63.0223 11.1028C62.5856 10.1374 61.9452 9.27792 61.1451 8.58335C60.3449 7.88878 59.404 7.37555 58.3868 7.0789C57.3696 6.78225 56.3003 6.70918 55.2522 6.86473C54.2042 7.02028 53.2022 7.40076 52.315 7.98005Z" fill="white"/>
</mask>
<g mask="url(#mask4_4877_1754)">
<path d="M49.2688 5.04822L46.7134 25.2791L62.8016 27.3082L65.3543 7.07458L49.2688 5.04822Z" fill="url(#paint9_linear_4877_1754)"/>
</g>
<path d="M54.3247 9.45278C53.5604 10.117 52.938 10.9287 52.4947 11.8391C51.8461 13.162 51.5927 14.6439 51.7649 16.1072C51.9371 17.5704 52.5276 18.953 53.4656 20.0891L56.5693 23.8828C56.7332 23.2307 56.7418 22.5493 56.5945 21.8932C56.4472 21.2372 56.1481 20.6249 55.7211 20.1055L54.0193 18.0219C53.3586 17.2385 52.9406 16.2795 52.8166 15.2623C52.6926 14.245 52.8679 13.2137 53.3211 12.2946C53.7691 11.366 54.4711 10.5833 55.3457 10.0374C56.2204 9.49142 57.2319 9.20457 58.2629 9.21005H58.4484C59.48 9.20516 60.4919 9.4922 61.3674 10.038C62.2428 10.5838 62.946 11.3661 63.3956 12.2946V12.311C63.412 12.3355 63.4393 12.3655 63.4611 12.3928C63.3516 11.9522 63.2028 11.5223 63.0165 11.1082C62.0688 9.75458 60.6302 8.82417 59.0069 8.515C57.3836 8.20582 55.7037 8.54228 54.3247 9.45278Z" fill="url(#paint10_linear_4877_1754)"/>
<mask id="mask5_4877_1754" style="mask-type:luminance" maskUnits="userSpaceOnUse" x="51" y="8" width="13" height="16">
<path d="M54.3247 9.45278C53.5604 10.117 52.938 10.9287 52.4947 11.8391C51.8461 13.162 51.5927 14.6439 51.7649 16.1072C51.9371 17.5704 52.5276 18.953 53.4656 20.0891L56.5693 23.8828C56.7332 23.2307 56.7418 22.5493 56.5945 21.8932C56.4472 21.2372 56.1481 20.6249 55.7211 20.1055L54.0193 18.0219C53.3586 17.2385 52.9406 16.2795 52.8166 15.2623C52.6926 14.245 52.8679 13.2137 53.3211 12.2946C53.7691 11.366 54.4711 10.5833 55.3457 10.0374C56.2204 9.49142 57.2319 9.20457 58.2629 9.21005H58.4484C59.48 9.20516 60.4919 9.4922 61.3674 10.038C62.2428 10.5838 62.946 11.3661 63.3956 12.2946V12.311C63.412 12.3355 63.4393 12.3655 63.4611 12.3928C63.3516 11.9522 63.2028 11.5223 63.0165 11.1082C62.0688 9.75458 60.6302 8.82417 59.0069 8.515C57.3836 8.20582 55.7037 8.54228 54.3247 9.45278Z" fill="white"/>
</mask>
<g mask="url(#mask5_4877_1754)">
<path d="M61.7332 4.17819L46.0327 10.6302L53.2084 28.0915L68.9089 21.6395L61.7332 4.17819Z" fill="url(#paint11_linear_4877_1754)"/>
</g>
<g style="mix-blend-mode:darken" opacity="0.31">
<mask id="mask6_4877_1754" style="mask-type:luminance" maskUnits="userSpaceOnUse" x="51" y="6" width="13" height="7">
<path d="M63.4968 6.78552H51.644V12.5183H63.4968V6.78552Z" fill="white"/>
</mask>
<g mask="url(#mask6_4877_1754)">
<path d="M63.4968 12.5155C63.1942 11.1712 62.5177 9.93993 61.5453 8.9637C60.573 7.98746 59.3443 7.30608 58.0013 6.9982C58.0013 6.9982 55.3313 6.12002 52.3095 7.9882L51.644 8.64275C51.644 8.64275 58.9722 3.8182 63.4968 12.5237" fill="url(#paint12_linear_4877_1754)"/>
<mask id="mask7_4877_1754" style="mask-type:luminance" maskUnits="userSpaceOnUse" x="51" y="6" width="13" height="7">
<path d="M63.4968 12.5155C63.1942 11.1712 62.5177 9.93993 61.5453 8.9637C60.573 7.98746 59.3443 7.30608 58.0013 6.9982C58.0013 6.9982 55.3313 6.12002 52.3095 7.9882L51.644 8.64275C51.644 8.64275 58.9722 3.8182 63.4968 12.5237" fill="white"/>
</mask>
<g mask="url(#mask7_4877_1754)">
<path d="M58.5491 -2.03338L47.3521 7.44897L56.5965 18.3651L67.7935 8.8827L58.5491 -2.03338Z" fill="url(#paint13_linear_4877_1754)"/>
</g>
</g>
</g>
<path d="M58.9939 29.2473L58.9312 29.3264L59.3075 29.7791L61.1866 32.0646L61.6175 31.541L61.6693 31.47L60.4584 29.9973L60.0848 29.5391L60.1448 29.4628L61.8002 27.431C61.6152 27.1513 61.388 26.902 61.1266 26.6919L61.0993 26.67L58.9939 29.2473Z" fill="url(#paint14_linear_4877_1754)"/>
<mask id="mask8_4877_1754" style="mask-type:luminance" maskUnits="userSpaceOnUse" x="58" y="26" width="4" height="7">
<path d="M58.9939 29.2473L58.9312 29.3264L59.3075 29.7791L61.1866 32.0646L61.6175 31.541L61.6693 31.47L60.4584 29.9973L60.0848 29.5391L60.1448 29.4628L61.8002 27.431C61.6152 27.1513 61.388 26.902 61.1266 26.6919L61.0993 26.67L58.9939 29.2473Z" fill="white"/>
</mask>
<g mask="url(#mask8_4877_1754)">
<path d="M61.7431 26.3101L62.4604 31.9773L58.9641 32.4191L58.2495 26.7519L61.7431 26.3101Z" fill="url(#paint15_linear_4877_1754)"/>
</g>
<path d="M60.1313 29.4628L60.0713 29.5392L60.4476 29.9974L61.6586 31.4701C62.0225 30.999 62.2583 30.4417 62.3429 29.8524C62.4275 29.263 62.358 28.6619 62.1413 28.1074C62.0505 27.8686 61.9315 27.6415 61.7867 27.431L60.1313 29.4628Z" fill="url(#paint16_linear_4877_1754)"/>
<mask id="mask9_4877_1754" style="mask-type:luminance" maskUnits="userSpaceOnUse" x="60" y="27" width="3" height="5">
<path d="M60.1313 29.4628L60.0713 29.5392L60.4476 29.9974L61.6586 31.4701C62.0225 30.999 62.2583 30.4417 62.3429 29.8524C62.4275 29.263 62.358 28.6619 62.1413 28.1074C62.0505 27.8686 61.9315 27.6415 61.7867 27.431L60.1313 29.4628Z" fill="white"/>
</mask>
<g mask="url(#mask9_4877_1754)">
<path d="M62.4221 27.1338L62.9593 31.4047L60.1093 31.7647L59.5693 27.4938L62.4221 27.1338Z" fill="url(#paint17_linear_4877_1754)"/>
</g>
<path d="M74.5558 11.2445C74.353 11.4522 74.1108 11.6172 73.8434 11.7301C73.576 11.843 73.2888 11.9013 72.9986 11.9018C72.4123 11.8975 71.8514 11.6623 71.4374 11.2473C71.0234 10.8323 70.7896 10.2708 70.7867 9.68453C70.7836 9.39416 70.8404 9.10627 70.9535 8.8388C71.0666 8.57134 71.2335 8.33005 71.444 8.12998L75.8731 3.69816C76.0762 3.49171 76.3181 3.32738 76.5849 3.21459C76.8516 3.10181 77.138 3.04278 77.4277 3.04089C78.0137 3.04518 78.5745 3.27987 78.9888 3.69425C79.4032 4.10863 79.6379 4.66943 79.6422 5.25544V20.7573H81.8567C82.431 20.7774 82.975 21.0197 83.3741 21.4331C83.7732 21.8464 83.9963 22.3986 83.9963 22.9732C83.9963 23.5478 83.7732 24.0999 83.3741 24.5133C82.975 24.9266 82.431 25.1689 81.8567 25.1891H72.9986C72.4243 25.1689 71.8803 24.9266 71.4812 24.5133C71.0821 24.0999 70.859 23.5478 70.859 22.9732C70.859 22.3986 71.0821 21.8464 71.4812 21.4331C71.8803 21.0197 72.4243 20.7774 72.9986 20.7573H75.2131V10.5873L74.5558 11.2445Z" fill="white"/>
<path d="M72.8456 11.2445C72.6428 11.4522 72.4006 11.6172 72.1332 11.7301C71.8658 11.843 71.5786 11.9013 71.2884 11.9018C70.7019 11.8975 70.1407 11.6624 69.7262 11.2475C69.3118 10.8325 69.0774 10.271 69.0738 9.68453C69.0712 9.39399 69.1285 9.10602 69.242 8.83857C69.3556 8.57112 69.523 8.32991 69.7338 8.12998L74.1629 3.69816C74.366 3.49171 74.6079 3.32738 74.8747 3.21459C75.1414 3.10181 75.4278 3.04278 75.7175 3.04089C76.3035 3.04518 76.8643 3.27987 77.2786 3.69425C77.693 4.10863 77.9277 4.66943 77.932 5.25544V20.7573H80.1465C80.7208 20.7774 81.2648 21.0197 81.6639 21.4331C82.063 21.8464 82.2861 22.3986 82.2861 22.9732C82.2861 23.5478 82.063 24.0999 81.6639 24.5133C81.2648 24.9266 80.7208 25.1689 80.1465 25.1891H71.2884C70.7141 25.1689 70.1701 24.9266 69.771 24.5133C69.3719 24.0999 69.1488 23.5478 69.1488 22.9732C69.1488 22.3986 69.3719 21.8464 69.771 21.4331C70.1701 21.0197 70.7141 20.7774 71.2884 20.7573H73.5029V10.5873L72.8456 11.2445Z" fill="#29ABE2"/>
<path d="M76.2192 11.2445C76.0164 11.4522 75.7742 11.6172 75.5068 11.7301C75.2394 11.843 74.9521 11.9013 74.6619 11.9018C74.0754 11.8975 73.5142 11.6624 73.0998 11.2475C72.6853 10.8325 72.4509 10.271 72.4473 9.68453C72.4449 9.39426 72.5019 9.10655 72.615 8.83919C72.728 8.57182 72.8947 8.33045 73.1046 8.12998L77.5392 3.69816C77.7423 3.49171 77.9842 3.32738 78.2509 3.21459C78.5177 3.10181 78.8041 3.04278 79.0937 3.04089C79.6797 3.04518 80.2405 3.27987 80.6549 3.69425C81.0693 4.10863 81.304 4.66943 81.3083 5.25544V20.7573H83.5228C84.097 20.7774 84.641 21.0197 85.0401 21.4331C85.4393 21.8464 85.6623 22.3986 85.6623 22.9732C85.6623 23.5478 85.4393 24.0999 85.0401 24.5133C84.641 24.9266 84.097 25.1689 83.5228 25.1891H74.6619C74.0877 25.1689 73.5437 24.9266 73.1445 24.5133C72.7454 24.0999 72.5224 23.5478 72.5224 22.9732C72.5224 22.3986 72.7454 21.8464 73.1445 21.4331C73.5437 21.0197 74.0877 20.7774 74.6619 20.7573H76.8764V10.5873L76.2192 11.2445Z" fill="#ED2926"/>
<path d="M74.5558 11.2445C74.353 11.4522 74.1108 11.6172 73.8434 11.7301C73.576 11.843 73.2888 11.9013 72.9986 11.9018C72.4123 11.8975 71.8514 11.6623 71.4374 11.2473C71.0234 10.8323 70.7896 10.2708 70.7867 9.68453C70.7836 9.39416 70.8404 9.10627 70.9535 8.8388C71.0666 8.57134 71.2335 8.33005 71.444 8.12998L75.8731 3.69816C76.0762 3.49171 76.3181 3.32738 76.5849 3.21459C76.8516 3.10181 77.138 3.04278 77.4277 3.04089C78.0137 3.04518 78.5745 3.27987 78.9888 3.69425C79.4032 4.10863 79.6379 4.66943 79.6422 5.25544V20.7573H81.8567C82.431 20.7774 82.975 21.0197 83.3741 21.4331C83.7732 21.8464 83.9963 22.3986 83.9963 22.9732C83.9963 23.5478 83.7732 24.0999 83.3741 24.5133C82.975 24.9266 82.431 25.1689 81.8567 25.1891H72.9986C72.4243 25.1689 71.8803 24.9266 71.4812 24.5133C71.0821 24.0999 70.859 23.5478 70.859 22.9732C70.859 22.3986 71.0821 21.8464 71.4812 21.4331C71.8803 21.0197 72.4243 20.7774 72.9986 20.7573H75.2131V10.5873L74.5558 11.2445Z" fill="#25235B"/>
<path d="M89.0727 22.8164C89.3064 22.8159 89.535 22.8847 89.7295 23.0141C89.9241 23.1435 90.0759 23.3278 90.1657 23.5435C90.2555 23.7592 90.2793 23.9968 90.234 24.226C90.1887 24.4553 90.0765 24.666 89.9114 24.8314C89.7464 24.9968 89.536 25.1095 89.3068 25.1553C89.0777 25.2011 88.8401 25.1779 88.6242 25.0886C88.4082 24.9993 88.2236 24.8479 88.0938 24.6537C87.9639 24.4594 87.8945 24.231 87.8945 23.9973C87.8938 23.8423 87.9238 23.6886 87.9827 23.5452C88.0416 23.4018 88.1283 23.2714 88.2378 23.1617C88.3474 23.0519 88.4775 22.9649 88.6208 22.9056C88.7641 22.8464 88.9177 22.816 89.0727 22.8164Z" fill="#25235B"/>
<path d="M94.4487 25.1646C93.7594 25.1645 93.0808 24.9944 92.4729 24.6693C91.8651 24.3443 91.3468 23.8744 90.964 23.3012C90.5811 22.728 90.3455 22.0693 90.278 21.3833C90.2105 20.6974 90.3132 20.0054 90.577 19.3686C90.8407 18.7318 91.2575 18.1698 91.7903 17.7325C92.3231 17.2953 92.9556 16.9961 93.6316 16.8616C94.3076 16.7271 95.0064 16.7614 95.666 16.9614C96.3256 17.1614 96.9257 17.521 97.4132 18.0083C97.5603 18.1541 97.6607 18.3402 97.7017 18.5432C97.7427 18.7462 97.7225 18.9567 97.6435 19.1482C97.5646 19.3396 97.4306 19.5033 97.2585 19.6184C97.0864 19.7335 96.8839 19.7948 96.6768 19.7946C96.5391 19.7977 96.4023 19.7716 96.2754 19.718C96.1485 19.6644 96.0343 19.5846 95.9405 19.4837C95.7469 19.2853 95.5146 19.129 95.2579 19.0243C95.0012 18.9197 94.7258 18.8691 94.4487 18.8756C93.9059 18.8951 93.3919 19.1245 93.0148 19.5154C92.6377 19.9064 92.427 20.4283 92.427 20.9715C92.427 21.5146 92.6377 22.0366 93.0148 22.4275C93.3919 22.8184 93.9059 23.0478 94.4487 23.0674C95.0062 23.0697 95.5422 22.8521 95.9405 22.4619C96.0367 22.3642 96.1513 22.2864 96.2777 22.233C96.404 22.1797 96.5397 22.1518 96.6768 22.151C96.9507 22.1624 97.2102 22.2765 97.4037 22.4706C97.5973 22.6646 97.7107 22.9244 97.7214 23.1983C97.721 23.3359 97.6932 23.4721 97.6399 23.5989C97.5865 23.7258 97.5085 23.8408 97.4105 23.9374C96.6248 24.7228 95.5596 25.1642 94.4487 25.1646Z" fill="#25235B"/>
<path d="M102.172 16.781C103.001 16.7783 103.813 17.0219 104.504 17.4808C105.196 17.9398 105.735 18.5935 106.054 19.3592C106.374 20.1249 106.459 20.9682 106.298 21.7822C106.138 22.5963 105.74 23.3445 105.154 23.9321C104.569 24.5197 103.822 24.9202 103.008 25.0831C102.195 25.2459 101.351 25.1637 100.584 24.8469C99.8177 24.53 99.1623 23.9927 98.7011 23.3031C98.2398 22.6135 97.9937 21.8025 97.9937 20.9728C97.9951 19.8639 98.4353 18.8006 99.2182 18.0152C100.001 17.2298 101.063 16.7861 102.172 16.781ZM102.172 23.0538C102.587 23.0543 102.993 22.9317 103.338 22.7014C103.683 22.4712 103.953 22.1437 104.112 21.7603C104.271 21.377 104.312 20.9551 104.232 20.548C104.151 20.1409 103.951 19.767 103.658 19.4735C103.364 19.18 102.99 18.9802 102.583 18.8994C102.176 18.8185 101.754 18.8603 101.371 19.0194C100.987 19.1785 100.66 19.4477 100.43 19.793C100.199 20.1383 100.077 20.5442 100.077 20.9592C100.075 21.2355 100.128 21.5095 100.232 21.7654C100.336 22.0212 100.49 22.2539 100.685 22.4499C100.88 22.6459 101.112 22.8014 101.367 22.9074C101.622 23.0134 101.896 23.0678 102.172 23.0674V23.0538Z" fill="#25235B"/>
<path d="M110.948 16.7809C111.436 16.7807 111.918 16.877 112.368 17.0642C112.818 17.2515 113.226 17.5259 113.569 17.8718C114.08 17.3531 114.734 16.998 115.447 16.8516C116.16 16.7053 116.901 16.7744 117.575 17.0501C118.249 17.3258 118.825 17.7956 119.231 18.3999C119.638 19.0041 119.855 19.7155 119.856 20.4436V24.1118C119.856 24.3896 119.745 24.6559 119.549 24.8523C119.353 25.0487 119.086 25.1591 118.808 25.1591C118.531 25.1591 118.264 25.0487 118.068 24.8523C117.872 24.6559 117.761 24.3896 117.761 24.1118V20.4491C117.77 20.2371 117.736 20.0255 117.661 19.8271C117.586 19.6286 117.471 19.4474 117.325 19.2943C117.178 19.1411 117.001 19.0193 116.806 18.9361C116.611 18.8528 116.401 18.8099 116.189 18.8099C115.977 18.8099 115.767 18.8528 115.572 18.9361C115.376 19.0193 115.2 19.1411 115.053 19.2943C114.906 19.4474 114.792 19.6286 114.717 19.8271C114.642 20.0255 114.608 20.2371 114.617 20.4491V24.1173C114.603 24.3861 114.486 24.6395 114.291 24.8249C114.096 25.0104 113.837 25.1138 113.568 25.1138C113.299 25.1138 113.04 25.0104 112.845 24.8249C112.65 24.6395 112.533 24.3861 112.519 24.1173V20.4491C112.519 20.0324 112.354 19.6329 112.059 19.3383C111.765 19.0437 111.365 18.8782 110.948 18.8782C110.532 18.8782 110.132 19.0437 109.838 19.3383C109.543 19.6329 109.378 20.0324 109.378 20.4491V24.1173C109.364 24.3861 109.247 24.6395 109.052 24.8249C108.857 25.0104 108.598 25.1138 108.329 25.1138C108.06 25.1138 107.801 25.0104 107.606 24.8249C107.41 24.6395 107.294 24.3861 107.28 24.1173V20.4491C107.28 20.4491 107.267 16.7809 110.948 16.7809Z" fill="#25235B"/>
<defs>
<linearGradient id="paint0_linear_4877_1754" x1="60.1423" y1="9.5182" x2="63.0577" y2="6.60002" gradientUnits="userSpaceOnUse">
<stop stop-color="#6FC7B2"/>
<stop offset="1" stop-color="#059174"/>
</linearGradient>
<linearGradient id="paint1_linear_4877_1754" x1="57.153" y1="12.8291" x2="65.5203" y2="4.46185" gradientUnits="userSpaceOnUse">
<stop stop-color="#6FC7B2"/>
<stop offset="1" stop-color="#059174"/>
</linearGradient>
<linearGradient id="paint2_linear_4877_1754" x1="57.2866" y1="19.44" x2="67.4075" y2="19.44" gradientUnits="userSpaceOnUse">
<stop stop-color="#6FC7B2"/>
<stop offset="1" stop-color="#059174"/>
</linearGradient>
<linearGradient id="paint3_linear_4877_1754" x1="54.9575" y1="19.4401" x2="70.3584" y2="19.4401" gradientUnits="userSpaceOnUse">
<stop stop-color="#6FC7B2"/>
<stop offset="1" stop-color="#059174"/>
</linearGradient>
<linearGradient id="paint4_linear_4877_1754" x1="56.103" y1="19.1045" x2="65.1303" y2="19.1045" gradientUnits="userSpaceOnUse">
<stop stop-color="#6FC7B2"/>
<stop offset="1" stop-color="#059174"/>
</linearGradient>
<linearGradient id="paint5_linear_4877_1754" x1="54.3301" y1="19.1019" x2="67.4592" y2="19.1019" gradientUnits="userSpaceOnUse">
<stop stop-color="#6FC7B2"/>
<stop offset="1" stop-color="#059174"/>
</linearGradient>
<linearGradient id="paint6_linear_4877_1754" x1="58.4049" y1="11.5064" x2="58.4049" y2="5.89917" gradientUnits="userSpaceOnUse">
<stop stop-color="#059174"/>
<stop offset="1" stop-color="#6FC7B2"/>
</linearGradient>
<linearGradient id="paint7_linear_4877_1754" x1="58.405" y1="12.791" x2="58.405" y2="4.61462" gradientUnits="userSpaceOnUse">
<stop stop-color="#059174"/>
<stop offset="1" stop-color="#6FC7B2"/>
</linearGradient>
<linearGradient id="paint8_linear_4877_1754" x1="56.1713" y1="25.5737" x2="56.1713" y2="6.7855" gradientUnits="userSpaceOnUse">
<stop stop-color="#FEBF10"/>
<stop offset="1" stop-color="#C32B91"/>
</linearGradient>
<linearGradient id="paint9_linear_4877_1754" x1="56.0325" y1="27.3082" x2="56.0325" y2="5.04822" gradientUnits="userSpaceOnUse">
<stop stop-color="#FEBF10"/>
<stop offset="1" stop-color="#C32B91"/>
</linearGradient>
<linearGradient id="paint10_linear_4877_1754" x1="53.062" y1="10.691" x2="61.4102" y2="19.0419" gradientUnits="userSpaceOnUse">
<stop stop-color="#FEBF10"/>
<stop offset="1" stop-color="#E65725"/>
</linearGradient>
<linearGradient id="paint11_linear_4877_1754" x1="48.994" y1="7.66601" x2="65.9358" y2="24.6106" gradientUnits="userSpaceOnUse">
<stop stop-color="#FEBF10"/>
<stop offset="1" stop-color="#E65725"/>
</linearGradient>
<linearGradient id="paint12_linear_4877_1754" x1="51.644" y1="9.64911" x2="63.4968" y2="9.64911" gradientUnits="userSpaceOnUse">
<stop stop-color="#2763AD"/>
<stop offset="0.67" stop-color="#51BCD8"/>
</linearGradient>
<linearGradient id="paint13_linear_4877_1754" x1="47.3511" y1="8.16209" x2="67.7948" y2="8.16209" gradientUnits="userSpaceOnUse">
<stop stop-color="#2763AD"/>
<stop offset="0.67" stop-color="#51BCD8"/>
</linearGradient>
<linearGradient id="paint14_linear_4877_1754" x1="58.9202" y1="29.3673" x2="61.7866" y2="29.3673" gradientUnits="userSpaceOnUse">
<stop stop-color="#FEBF10"/>
<stop offset="1" stop-color="#C32B91"/>
</linearGradient>
<linearGradient id="paint15_linear_4877_1754" x1="58.8126" y1="21.7438" x2="60.3565" y2="33.9866" gradientUnits="userSpaceOnUse">
<stop stop-color="#FEBF10"/>
<stop offset="1" stop-color="#C32B91"/>
</linearGradient>
<linearGradient id="paint16_linear_4877_1754" x1="62.5777" y1="29.9428" x2="60.524" y2="28.7565" gradientUnits="userSpaceOnUse">
<stop stop-color="#FEBF10"/>
<stop offset="1" stop-color="#E65725"/>
</linearGradient>
<linearGradient id="paint17_linear_4877_1754" x1="63.3821" y1="30.6711" x2="59.1466" y2="28.2247" gradientUnits="userSpaceOnUse">
<stop stop-color="#FEBF10"/>
<stop offset="1" stop-color="#E65725"/>
</linearGradient>
</defs>
</svg>
