<svg width="100" height="100" viewBox="0 0 100 100" fill="none" xmlns="http://www.w3.org/2000/svg">
<path d="M88.2915 88.2848L72.9769 72.0848C79.0682 65.7758 82.6414 57.4566 83.023 48.6952C83.4046 39.9338 80.5683 31.3354 75.0487 24.5206C69.529 17.7059 61.7072 13.1455 53.0577 11.6989C44.4081 10.2524 35.5281 12.0198 28.0915 16.6678C20.6548 21.3158 15.1752 28.5235 12.6854 36.9323C10.1955 45.3412 10.8675 54.3703 14.5746 62.318C18.2817 70.2656 24.7679 76.5828 32.8106 80.0788C40.8534 83.5749 49.8971 84.0083 58.2373 81.2973" stroke="#25215B" stroke-width="3" stroke-linecap="round" stroke-linejoin="round"/>
<g clip-path="url(#clip0_476_13701)">
<path d="M46.4809 27.1418C45.5387 27.1432 44.5988 27.2354 43.6743 27.4171C48.8605 27.6328 53.5784 30.6267 55.8472 35.3233C56.0033 35.6341 56.1424 35.9548 56.2658 36.274C56.927 36.3776 57.5201 36.274 57.9884 35.9349C58.5446 35.5319 58.8397 34.8466 58.8766 34.0009C56.3438 29.7441 51.687 27.1418 46.6739 27.1418H46.4809Z" fill="url(#paint0_linear_476_13701)"/>
<mask id="mask0_476_13701" style="mask-type:luminance" maskUnits="userSpaceOnUse" x="43" y="27" width="16" height="10">
<path d="M46.4809 27.1418C45.5387 27.1432 44.5988 27.2354 43.6743 27.4171C48.8605 27.6328 53.5784 30.6267 55.8472 35.3233C56.0033 35.6341 56.1424 35.9548 56.2658 36.274C56.927 36.3776 57.5201 36.274 57.9884 35.9349C58.5446 35.5319 58.8397 34.8466 58.8766 34.0009C56.3438 29.7441 51.687 27.1418 46.6739 27.1418H46.4809Z" fill="white"/>
</mask>
<g mask="url(#mask0_476_13701)">
<path d="M43.9156 25.2546L42.5293 36.2286L58.6369 38.2619L60.0288 27.2879L43.9156 25.2546Z" fill="url(#paint1_linear_476_13701)"/>
</g>
<path d="M57.9887 35.935C57.5205 36.2741 56.9274 36.3777 56.2662 36.2741C57.2011 38.5953 57.4914 41.1261 57.1065 43.5987C56.7216 46.0714 55.6758 48.3941 54.0796 50.3214L44.8779 61.5649L46.5806 63.6252L57.6837 50.0546C59.391 47.9911 60.4661 45.4784 60.7797 42.8186C61.0934 40.1588 60.6322 37.4649 59.4516 35.0609C59.2771 34.6977 59.0856 34.3514 58.8841 34.001C58.8429 34.8523 58.5521 35.532 57.9958 35.935" fill="url(#paint2_linear_476_13701)"/>
<mask id="mask1_476_13701" style="mask-type:luminance" maskUnits="userSpaceOnUse" x="44" y="34" width="17" height="30">
<path d="M57.9887 35.935C57.5205 36.2741 56.9274 36.3777 56.2662 36.2741C57.2011 38.5953 57.4914 41.1261 57.1065 43.5987C56.7216 46.0714 55.6758 48.3941 54.0796 50.3214L44.8779 61.5649L46.5806 63.6252L57.6837 50.0546C59.391 47.9911 60.4661 45.4784 60.7797 42.8186C61.0934 40.1588 60.6322 37.4649 59.4516 35.0609C59.2771 34.6977 59.0856 34.3514 58.8841 34.001C58.8429 34.8523 58.5521 35.532 57.9958 35.935" fill="white"/>
</mask>
<g mask="url(#mask1_476_13701)">
<path d="M45.1419 31.8953L41.1987 63.164L61.5886 65.7322L65.5318 34.4678L45.1419 31.8953Z" fill="url(#paint3_linear_476_13701)"/>
</g>
<path d="M54.6912 37.8787C55.9441 40.8429 55.4844 44.0666 53.4227 46.5781L43.0078 59.3044L44.8779 61.5676L54.0796 50.3241C55.6758 48.3968 56.7216 46.0741 57.1065 43.6014C57.4914 41.1287 57.2011 38.598 56.2662 36.2768C55.4461 36.1477 54.5238 35.6993 53.6242 34.9998C54.1081 35.9074 54.467 36.8763 54.6912 37.8802" fill="url(#paint4_linear_476_13701)"/>
<mask id="mask2_476_13701" style="mask-type:luminance" maskUnits="userSpaceOnUse" x="43" y="34" width="15" height="28">
<path d="M54.6912 37.8787C55.9441 40.8429 55.4844 44.0666 53.4227 46.5781L43.0078 59.3044L44.8779 61.5676L54.0796 50.3241C55.6758 48.3968 56.7216 46.0741 57.1065 43.6014C57.4914 41.1287 57.2011 38.598 56.2662 36.2768C55.4461 36.1477 54.5238 35.6993 53.6242 34.9998C54.1081 35.9074 54.467 36.8763 54.6912 37.8802" fill="white"/>
</mask>
<g mask="url(#mask2_476_13701)">
<path d="M43.1796 33.3936L40.2041 61.2654L57.9874 63.1639L60.953 35.2878L43.1796 33.3936Z" fill="url(#paint5_linear_476_13701)"/>
</g>
<path d="M39.2671 29.0816C38.4654 29.5431 37.7128 30.0851 37.021 30.6991C38.1535 29.9546 39.4087 29.4162 40.7286 29.1085C43.2254 28.5316 45.8428 28.795 48.1745 29.858C50.5062 30.921 52.4217 32.724 53.6238 34.9871C54.5234 35.6966 55.4457 36.1407 56.2658 36.2641C56.1423 35.9449 56.0033 35.6242 55.8472 35.3134C53.5769 30.6168 48.8605 27.6229 43.6743 27.4072C42.1224 27.7166 40.633 28.2825 39.2671 29.0816Z" fill="url(#paint6_linear_476_13701)"/>
<mask id="mask3_476_13701" style="mask-type:luminance" maskUnits="userSpaceOnUse" x="37" y="27" width="20" height="10">
<path d="M39.2671 29.0816C38.4654 29.5431 37.7128 30.0851 37.021 30.6991C38.1535 29.9546 39.4087 29.4162 40.7286 29.1085C43.2254 28.5316 45.8428 28.795 48.1745 29.858C50.5062 30.921 52.4217 32.724 53.6238 34.9871C54.5234 35.6966 55.4457 36.1407 56.2658 36.2641C56.1423 35.9449 56.0033 35.6242 55.8472 35.3134C53.5769 30.6168 48.8605 27.6229 43.6743 27.4072C42.1224 27.7166 40.633 28.2825 39.2671 29.0816Z" fill="white"/>
</mask>
<g mask="url(#mask3_476_13701)">
<path d="M37.2352 25.3853L36.0845 36.1761L56.0515 38.3059L57.2022 27.5179L37.2352 25.3853Z" fill="url(#paint7_linear_476_13701)"/>
</g>
<path d="M37.0212 30.7032C35.6347 31.9189 34.5065 33.4007 33.7038 35.0607C32.8961 36.7097 32.4224 38.502 32.3099 40.3347C32.1974 42.1674 32.4483 44.0042 33.0482 45.7395C33.5966 47.3089 34.4169 48.7695 35.4717 50.0545L42.3805 58.5013L42.4159 58.4559C43.0417 57.6866 43.4937 56.7911 43.7412 55.8309L38.836 49.8359C37.9172 48.7192 37.2033 47.4486 36.7275 46.0829C36.205 44.5745 35.9862 42.9776 36.0836 41.3842C36.181 39.7908 36.5927 38.2325 37.2951 36.7989C37.9963 35.3597 38.9802 34.0766 40.1882 33.026C42.3673 31.5853 45.0226 31.0518 47.589 31.5389C50.1555 32.0259 52.4307 33.4951 53.9305 35.634C53.2401 34.1086 52.228 32.7506 50.9633 31.6533C49.6987 30.556 48.2117 29.7453 46.6042 29.2769C44.9968 28.8085 43.307 28.6934 41.6509 28.9396C39.9948 29.1858 38.4115 29.7875 37.0099 30.7032" fill="url(#paint8_linear_476_13701)"/>
<mask id="mask4_476_13701" style="mask-type:luminance" maskUnits="userSpaceOnUse" x="32" y="28" width="22" height="31">
<path d="M37.0212 30.7032C35.6347 31.9189 34.5065 33.4007 33.7038 35.0607C32.8961 36.7097 32.4224 38.502 32.3099 40.3347C32.1974 42.1674 32.4483 44.0042 33.0482 45.7395C33.5966 47.3089 34.4169 48.7695 35.4717 50.0545L42.3805 58.5013L42.4159 58.4559C43.0417 57.6866 43.4937 56.7911 43.7412 55.8309L38.836 49.8359C37.9172 48.7192 37.2033 47.4486 36.7275 46.0829C36.205 44.5745 35.9862 42.9776 36.0836 41.3842C36.181 39.7908 36.5927 38.2325 37.2951 36.7989C37.9963 35.3597 38.9802 34.0766 40.1882 33.026C42.3673 31.5853 45.0226 31.0518 47.589 31.5389C50.1555 32.0259 52.4307 33.4951 53.9305 35.634C53.2401 34.1086 52.228 32.7506 50.9633 31.6533C49.6987 30.556 48.2117 29.7453 46.6042 29.2769C44.9968 28.8085 43.307 28.6934 41.6509 28.9396C39.9948 29.1858 38.4115 29.7875 37.0099 30.7032" fill="white"/>
</mask>
<g mask="url(#mask4_476_13701)">
<path d="M32.2067 26.0718L28.1685 58.0372L53.5912 61.2439L57.6224 29.2757L32.2067 26.0718Z" fill="url(#paint9_linear_476_13701)"/>
</g>
<path d="M40.1994 33.0261C38.9915 34.0767 38.0075 35.3598 37.3063 36.799C36.6039 38.2326 36.1922 39.7909 36.0948 41.3843C35.9974 42.9777 36.2162 44.5746 36.7387 46.083C37.2145 47.4487 37.9284 48.7193 38.8472 49.836L43.7524 55.831C44.0134 54.8014 44.0295 53.725 43.7993 52.6881C43.5692 51.6512 43.0992 50.6826 42.4271 49.8602L39.734 46.5711C37.5872 43.9575 37.18 40.5677 38.6287 37.5113C40.0476 34.5103 43.1196 32.6373 46.4327 32.6373H46.708C50.0255 32.6373 53.0932 34.5103 54.522 37.5113C54.527 37.5204 54.5313 37.5299 54.5348 37.5397C54.5603 37.5766 54.6015 37.622 54.6341 37.6674C54.4626 36.97 54.2284 36.2894 53.9346 35.6341C52.4348 33.4952 50.1596 32.026 47.5932 31.5389C45.0267 31.0519 42.3714 31.5854 40.1923 33.0261" fill="url(#paint10_linear_476_13701)"/>
<mask id="mask5_476_13701" style="mask-type:luminance" maskUnits="userSpaceOnUse" x="36" y="31" width="19" height="25">
<path d="M40.1994 33.0261C38.9915 34.0767 38.0075 35.3598 37.3063 36.799C36.6039 38.2326 36.1922 39.7909 36.0948 41.3843C35.9974 42.9777 36.2162 44.5746 36.7387 46.083C37.2145 47.4487 37.9284 48.7193 38.8472 49.836L43.7524 55.831C44.0134 54.8014 44.0295 53.725 43.7993 52.6881C43.5692 51.6512 43.0992 50.6826 42.4271 49.8602L39.734 46.5711C37.5872 43.9575 37.18 40.5677 38.6287 37.5113C40.0476 34.5103 43.1196 32.6373 46.4327 32.6373H46.708C50.0255 32.6373 53.0932 34.5103 54.522 37.5113C54.527 37.5204 54.5313 37.5299 54.5348 37.5397C54.5603 37.5766 54.6015 37.622 54.6341 37.6674C54.4626 36.97 54.2284 36.2894 53.9346 35.6341C52.4348 33.4952 50.1596 32.026 47.5932 31.5389C45.0267 31.0519 42.3714 31.5854 40.1923 33.0261" fill="white"/>
</mask>
<g mask="url(#mask5_476_13701)">
<path d="M38.43 62.4886L63.2398 52.298L51.9026 24.7085L27.0942 34.8978L38.43 62.4886Z" fill="url(#paint11_linear_476_13701)"/>
</g>
<g style="mix-blend-mode:darken" opacity="0.31">
<mask id="mask6_476_13701" style="mask-type:luminance" maskUnits="userSpaceOnUse" x="35" y="28" width="20" height="10">
<path d="M54.6912 28.8132H35.9629V37.8716H54.6912V28.8132Z" fill="white"/>
</mask>
<g mask="url(#mask6_476_13701)">
<path d="M54.6912 37.8787C54.6912 37.8787 53.5121 30.9799 46.0088 29.1439C46.0088 29.1439 41.789 27.7576 37.0157 30.7047L35.9629 31.7391C35.9629 31.7391 47.5413 24.1152 54.6926 37.873" fill="url(#paint12_linear_476_13701)"/>
<mask id="mask7_476_13701" style="mask-type:luminance" maskUnits="userSpaceOnUse" x="35" y="28" width="20" height="10">
<path d="M54.6912 37.8787C54.6912 37.8787 53.5121 30.9799 46.0088 29.1439C46.0088 29.1439 41.789 27.7576 37.0157 30.7047L35.9629 31.7391C35.9629 31.7391 47.5413 24.1152 54.6926 37.873" fill="white"/>
</mask>
<g mask="url(#mask7_476_13701)">
<path d="M43.7869 47.1073L61.4765 32.1235L46.8688 14.8779L29.1763 29.8617L43.7869 47.1073Z" fill="url(#paint13_linear_476_13701)"/>
</g>
</g>
</g>
<path d="M47.5569 64.3077L47.459 64.4297L48.0563 65.1477L51.0261 68.756L51.703 67.9273C51.7328 67.8919 51.7597 67.855 51.7881 67.8152L49.8797 65.4896L49.2851 64.7688L49.3816 64.6468L51.9896 61.4329C51.6949 60.9916 51.3357 60.5971 50.924 60.2623L50.8814 60.2283L47.5569 64.3077Z" fill="url(#paint14_linear_476_13701)"/>
<mask id="mask8_476_13701" style="mask-type:luminance" maskUnits="userSpaceOnUse" x="47" y="60" width="5" height="9">
<path d="M47.5569 64.3077L47.459 64.4297L48.0563 65.1477L51.0261 68.756L51.703 67.9273C51.7328 67.8919 51.7597 67.855 51.7881 67.8152L49.8797 65.4896L49.2851 64.7688L49.3816 64.6468L51.9896 61.4329C51.6949 60.9916 51.3357 60.5971 50.924 60.2623L50.8814 60.2283L47.5569 64.3077Z" fill="white"/>
</mask>
<g mask="url(#mask8_476_13701)">
<path d="M51.9199 59.6663L53.0522 68.6211L47.527 69.3192L46.3989 60.3644L51.9199 59.6663Z" fill="url(#paint15_linear_476_13701)"/>
</g>
<path d="M49.3743 64.6467L49.2778 64.7687L49.8724 65.4895L51.7879 67.818C52.3636 67.0749 52.7366 66.1951 52.8704 65.2647C53.0042 64.3342 52.8942 63.385 52.5513 62.5098C52.4058 62.1317 52.2152 61.7724 51.9837 61.4399L49.3743 64.6467Z" fill="url(#paint16_linear_476_13701)"/>
<mask id="mask9_476_13701" style="mask-type:luminance" maskUnits="userSpaceOnUse" x="49" y="61" width="4" height="7">
<path d="M49.3743 64.6467L49.2778 64.7687L49.8724 65.4895L51.7879 67.818C52.3636 67.0749 52.7366 66.1951 52.8704 65.2647C53.0042 64.3342 52.8942 63.385 52.5513 62.5098C52.4058 62.1317 52.2152 61.7724 51.9837 61.4399L49.3743 64.6467Z" fill="white"/>
</mask>
<g mask="url(#mask9_476_13701)">
<path d="M52.9913 60.9702L53.8412 67.7158L49.3376 68.2847L48.4834 61.5392L52.9913 60.9702Z" fill="url(#paint17_linear_476_13701)"/>
</g>
<path d="M50.4683 44.5293C50.254 44.7487 49.998 44.9232 49.7154 45.0423C49.4327 45.1615 49.1291 45.2229 48.8224 45.2232C48.2032 45.2183 47.6108 44.97 47.1732 44.5319C46.7357 44.0938 46.4881 43.5011 46.484 42.8819C46.4807 42.575 46.5407 42.2706 46.6603 41.9879C46.78 41.7052 46.9566 41.4502 47.1793 41.2388L51.8617 36.5564C52.0764 36.3382 52.332 36.1646 52.614 36.0455C52.896 35.9264 53.1987 35.8642 53.5048 35.8625C54.1228 35.8685 54.7137 36.1169 55.1502 36.5543C55.5868 36.9916 55.8341 37.583 55.8389 38.2009V54.5809H58.1787C58.7997 54.5809 59.3952 54.8276 59.8342 55.2667C60.2733 55.7057 60.52 56.3012 60.52 56.9221C60.52 57.5431 60.2733 58.1386 59.8342 58.5776C59.3952 59.0167 58.7997 59.2634 58.1787 59.2634H48.8139C48.1929 59.2634 47.5974 59.0167 47.1584 58.5776C46.7193 58.1386 46.4727 57.5431 46.4727 56.9221C46.4727 56.3012 46.7193 55.7057 47.1584 55.2667C47.5974 54.8276 48.1929 54.5809 48.8139 54.5809H51.1565V43.8383L50.4683 44.5293Z" fill="#00AEEF"/>
<path d="M52.6463 44.5293C52.432 44.7487 52.176 44.9232 51.8933 45.0423C51.6107 45.1615 51.3071 45.2229 51.0003 45.2232C50.3812 45.2183 49.7888 44.97 49.3512 44.5319C48.9136 44.0938 48.6661 43.5011 48.662 42.8819C48.6586 42.575 48.7187 42.2706 48.8383 41.9879C48.9579 41.7052 49.1346 41.4502 49.3572 41.2388L54.0397 36.5564C54.2543 36.3382 54.51 36.1646 54.792 36.0455C55.074 35.9264 55.3767 35.8642 55.6828 35.8625C56.3018 35.867 56.8943 36.1147 57.3324 36.5522C57.7704 36.9897 58.0188 37.5819 58.024 38.2009V54.5809H60.3638C60.9847 54.5809 61.5802 54.8276 62.0193 55.2667C62.4583 55.7057 62.705 56.3012 62.705 56.9221C62.705 57.5431 62.4583 58.1386 62.0193 58.5776C61.5802 59.0167 60.9847 59.2634 60.3638 59.2634H50.9989C50.378 59.2634 49.7825 59.0167 49.3434 58.5776C48.9044 58.1386 48.6577 57.5431 48.6577 56.9221C48.6577 56.3012 48.9044 55.7057 49.3434 55.2667C49.7825 54.8276 50.378 54.5809 50.9989 54.5809H53.3387V43.8383L52.6463 44.5293Z" fill="#EE2524"/>
<path d="M51.5578 44.5293C51.3432 44.7488 51.087 44.9232 50.8041 45.0424C50.5212 45.1615 50.2174 45.223 49.9105 45.2232C49.2914 45.2183 48.6992 44.97 48.2618 44.5318C47.8245 44.0937 47.5772 43.501 47.5735 42.8819C47.5702 42.5751 47.6301 42.2709 47.7495 41.9882C47.8689 41.7055 48.0452 41.4505 48.2674 41.2388L52.9498 36.5564C53.1643 36.3384 53.4197 36.1648 53.7014 36.0457C53.9832 35.9267 54.2856 35.8644 54.5915 35.8625C55.2106 35.8666 55.8034 36.1142 56.2415 36.5518C56.6796 36.9894 56.9279 37.5818 56.9327 38.2009V54.5809H59.2725C59.8934 54.5809 60.4889 54.8276 60.928 55.2667C61.367 55.7057 61.6137 56.3012 61.6137 56.9221C61.6137 57.5431 61.367 58.1386 60.928 58.5776C60.4889 59.0167 59.8934 59.2634 59.2725 59.2634H49.9076C49.2867 59.2634 48.6912 59.0167 48.2521 58.5776C47.8131 58.1386 47.5664 57.5431 47.5664 56.9221C47.5664 56.3012 47.8131 55.7057 48.2521 55.2667C48.6912 54.8276 49.2867 54.5809 49.9076 54.5809H52.2488V43.8383L51.5578 44.5293Z" fill="white"/>
</g>
<defs>
<linearGradient id="paint0_linear_476_13701" x1="49.3911" y1="33.1325" x2="53.9984" y2="28.5253" gradientUnits="userSpaceOnUse">
<stop stop-color="#6FC7B2"/>
<stop offset="1" stop-color="#059174"/>
</linearGradient>
<linearGradient id="paint1_linear_476_13701" x1="44.6676" y1="38.3669" x2="57.8877" y2="25.1468" gradientUnits="userSpaceOnUse">
<stop stop-color="#6FC7B2"/>
<stop offset="1" stop-color="#059174"/>
</linearGradient>
<linearGradient id="paint2_linear_476_13701" x1="44.8779" y1="48.8117" x2="60.8706" y2="48.8117" gradientUnits="userSpaceOnUse">
<stop stop-color="#6FC7B2"/>
<stop offset="1" stop-color="#059174"/>
</linearGradient>
<linearGradient id="paint3_linear_476_13701" x1="41.1987" y1="48.813" x2="65.5318" y2="48.813" gradientUnits="userSpaceOnUse">
<stop stop-color="#6FC7B2"/>
<stop offset="1" stop-color="#059174"/>
</linearGradient>
<linearGradient id="paint4_linear_476_13701" x1="43.0078" y1="48.278" x2="57.2722" y2="48.278" gradientUnits="userSpaceOnUse">
<stop stop-color="#6FC7B2"/>
<stop offset="1" stop-color="#059174"/>
</linearGradient>
<linearGradient id="paint5_linear_476_13701" x1="40.2041" y1="48.2794" x2="60.953" y2="48.2794" gradientUnits="userSpaceOnUse">
<stop stop-color="#6FC7B2"/>
<stop offset="1" stop-color="#059174"/>
</linearGradient>
<linearGradient id="paint6_linear_476_13701" x1="46.6441" y1="36.2741" x2="46.6441" y2="27.4172" gradientUnits="userSpaceOnUse">
<stop stop-color="#059174"/>
<stop offset="1" stop-color="#6FC7B2"/>
</linearGradient>
<linearGradient id="paint7_linear_476_13701" x1="46.6441" y1="38.3059" x2="46.6441" y2="25.3853" gradientUnits="userSpaceOnUse">
<stop stop-color="#059174"/>
<stop offset="1" stop-color="#6FC7B2"/>
</linearGradient>
<linearGradient id="paint8_linear_476_13701" x1="43.1155" y1="58.5013" x2="43.1155" y2="28.8132" gradientUnits="userSpaceOnUse">
<stop stop-color="#FEBF10"/>
<stop offset="1" stop-color="#C32B91"/>
</linearGradient>
<linearGradient id="paint9_linear_476_13701" x1="42.8954" y1="61.2439" x2="42.8954" y2="26.0718" gradientUnits="userSpaceOnUse">
<stop stop-color="#FEBF10"/>
<stop offset="1" stop-color="#C32B91"/>
</linearGradient>
<linearGradient id="paint10_linear_476_13701" x1="38.2016" y1="34.987" x2="51.3961" y2="48.1816" gradientUnits="userSpaceOnUse">
<stop stop-color="#FEBF10"/>
<stop offset="1" stop-color="#E65725"/>
</linearGradient>
<linearGradient id="paint11_linear_476_13701" x1="31.7795" y1="30.2125" x2="58.5531" y2="56.9846" gradientUnits="userSpaceOnUse">
<stop stop-color="#FEBF10"/>
<stop offset="1" stop-color="#E65725"/>
</linearGradient>
<linearGradient id="paint12_linear_476_13701" x1="35.9629" y1="33.3424" x2="54.6912" y2="33.3424" gradientUnits="userSpaceOnUse">
<stop stop-color="#2763AD"/>
<stop offset="0.67" stop-color="#51BCD8"/>
</linearGradient>
<linearGradient id="paint13_linear_476_13701" x1="29.1763" y1="30.9926" x2="61.4765" y2="30.9926" gradientUnits="userSpaceOnUse">
<stop stop-color="#2763AD"/>
<stop offset="0.67" stop-color="#51BCD8"/>
</linearGradient>
<linearGradient id="paint14_linear_476_13701" x1="47.459" y1="64.4935" x2="51.9896" y2="64.4935" gradientUnits="userSpaceOnUse">
<stop stop-color="#FEBF10"/>
<stop offset="1" stop-color="#C32B91"/>
</linearGradient>
<linearGradient id="paint15_linear_476_13701" x1="47.8746" y1="52.1686" x2="50.3237" y2="71.5895" gradientUnits="userSpaceOnUse">
<stop stop-color="#FEBF10"/>
<stop offset="1" stop-color="#C32B91"/>
</linearGradient>
<linearGradient id="paint16_linear_476_13701" x1="53.2366" y1="65.4044" x2="49.993" y2="63.5314" gradientUnits="userSpaceOnUse">
<stop stop-color="#FEBF10"/>
<stop offset="1" stop-color="#E65725"/>
</linearGradient>
<linearGradient id="paint17_linear_476_13701" x1="54.5095" y1="66.5579" x2="47.8165" y2="62.6942" gradientUnits="userSpaceOnUse">
<stop stop-color="#FEBF10"/>
<stop offset="1" stop-color="#E65725"/>
</linearGradient>
<clipPath id="clip0_476_13701">
<rect width="30.9324" height="42" fill="white" transform="translate(32 27)"/>
</clipPath>
</defs>
</svg>
