<svg width="13" height="14" viewBox="0 0 13 14" fill="none" xmlns="http://www.w3.org/2000/svg">
<path d="M11.5956 2.49299L6.49147 0.373799C6.3636 0.320726 6.21988 0.3207 6.09204 0.373799L0.987868 2.49299C0.793467 2.57372 0.666748 2.76351 0.666748 2.97401V5.55018C0.666748 9.0974 2.81073 12.2882 6.09493 13.6287C6.22107 13.6802 6.3624 13.6802 6.48858 13.6287C9.77272 12.2882 11.9168 9.09743 11.9168 5.55018V2.97401C11.9168 2.76351 11.7901 2.57372 11.5956 2.49299ZM10.8751 5.55018C10.8751 8.56568 9.10425 11.3416 6.29175 12.5808C3.55441 11.3747 1.70842 8.6474 1.70842 5.55018V3.32172L6.29175 1.41875L10.8751 3.32172V5.55018ZM5.71607 7.30576L7.95472 5.06714C8.15811 4.86375 8.48787 4.86372 8.69129 5.06714C8.8947 5.27055 8.89467 5.60031 8.69126 5.8037L6.08436 8.4106C5.88092 8.61404 5.55115 8.61396 5.34779 8.4106L3.89222 6.95503C3.68881 6.75162 3.68881 6.42185 3.89222 6.21846C4.09563 6.01508 4.4254 6.01505 4.62878 6.21846L5.71607 7.30576Z" fill="#25215B" stroke="#25215B" stroke-width="0.25"/>
</svg>
