<svg width="24" height="24" viewBox="0 0 24 24" fill="none" xmlns="http://www.w3.org/2000/svg">
<g clip-path="url(#clip0_2305_28525)">
<path d="M22.3125 7.1875C21.9328 7.1875 21.625 6.87967 21.625 6.5V2.97656C21.625 2.64484 21.3552 2.375 21.0234 2.375H17.5C17.1203 2.375 16.8125 2.06717 16.8125 1.6875C16.8125 1.30783 17.1203 1 17.5 1H21.0234C22.1133 1 23 1.8867 23 2.97656V6.5C23 6.87967 22.6922 7.1875 22.3125 7.1875Z" fill="#25215B" stroke="#25215B" stroke-width="0.25"/>
<path d="M1.6875 7.1875C1.30779 7.1875 1 6.87967 1 6.5V2.97656C1 1.8867 1.8867 1 2.97656 1H6.5C6.87971 1 7.1875 1.30783 7.1875 1.6875C7.1875 2.06717 6.87971 2.375 6.5 2.375H2.97656C2.64484 2.375 2.375 2.64484 2.375 2.97656V6.5C2.375 6.87967 2.06721 7.1875 1.6875 7.1875Z" fill="#25215B" stroke="#25215B" stroke-width="0.25"/>
<path d="M6.5 23H2.97656C1.8867 23 1 22.1133 1 21.0234V17.5C1 17.1203 1.30779 16.8125 1.6875 16.8125C2.06721 16.8125 2.375 17.1203 2.375 17.5V21.0234C2.375 21.3552 2.64484 21.625 2.97656 21.625H6.5C6.87971 21.625 7.1875 21.9328 7.1875 22.3125C7.1875 22.6922 6.87971 23 6.5 23Z" fill="#25215B" stroke="#25215B" stroke-width="0.25"/>
<path d="M21.0234 23H17.5C17.1203 23 16.8125 22.6922 16.8125 22.3125C16.8125 21.9328 17.1203 21.625 17.5 21.625H21.0234C21.3552 21.625 21.625 21.3552 21.625 21.0234V17.5C21.625 17.1203 21.9328 16.8125 22.3125 16.8125C22.6922 16.8125 23 17.1203 23 17.5V21.0234C23 22.1133 22.1133 23 21.0234 23Z" fill="#25215B" stroke="#25215B" stroke-width="0.25"/>
<path d="M9.33594 11.3125H5.72656C4.6367 11.3125 3.75 10.4258 3.75 9.33594V5.72656C3.75 4.6367 4.6367 3.75 5.72656 3.75H9.33594C10.4258 3.75 11.3125 4.6367 11.3125 5.72656V9.33594C11.3125 10.4258 10.4258 11.3125 9.33594 11.3125ZM5.72656 5.125C5.39484 5.125 5.125 5.39484 5.125 5.72656V9.33594C5.125 9.66766 5.39484 9.9375 5.72656 9.9375H9.33594C9.66766 9.9375 9.9375 9.66766 9.9375 9.33594V5.72656C9.9375 5.39484 9.66766 5.125 9.33594 5.125H5.72656Z" fill="#25215B" stroke="#25215B" stroke-width="0.25"/>
<path d="M9.33594 20.25H5.72656C4.6367 20.25 3.75 19.3633 3.75 18.2734V14.6641C3.75 13.5742 4.6367 12.6875 5.72656 12.6875H9.33594C10.4258 12.6875 11.3125 13.5742 11.3125 14.6641V18.2734C11.3125 19.3633 10.4258 20.25 9.33594 20.25ZM5.72656 14.0625C5.39484 14.0625 5.125 14.3323 5.125 14.6641V18.2734C5.125 18.6052 5.39484 18.875 5.72656 18.875H9.33594C9.66766 18.875 9.9375 18.6052 9.9375 18.2734V14.6641C9.9375 14.3323 9.66766 14.0625 9.33594 14.0625H5.72656Z" fill="#25215B" stroke="#25215B" stroke-width="0.25"/>
<path d="M18.2734 11.3125H14.6641C13.5742 11.3125 12.6875 10.4258 12.6875 9.33594V5.72656C12.6875 4.6367 13.5742 3.75 14.6641 3.75H18.2734C19.3633 3.75 20.25 4.6367 20.25 5.72656V9.33594C20.25 10.4258 19.3633 11.3125 18.2734 11.3125ZM14.6641 5.125C14.3323 5.125 14.0625 5.39484 14.0625 5.72656V9.33594C14.0625 9.66766 14.3323 9.9375 14.6641 9.9375H18.2734C18.6052 9.9375 18.875 9.66766 18.875 9.33594V5.72656C18.875 5.39484 18.6052 5.125 18.2734 5.125H14.6641Z" fill="#25215B" stroke="#25215B" stroke-width="0.25"/>
<path d="M19.1328 16.125H17.5V13.8047C17.5 13.1887 16.9989 12.6875 16.3828 12.6875H13.8047C13.1886 12.6875 12.6875 13.1887 12.6875 13.8047V16.3828C12.6875 16.9988 13.1886 17.5 13.8047 17.5H16.125V19.1328C16.125 19.7488 16.6261 20.25 17.2422 20.25H19.1328C19.7489 20.25 20.25 19.7488 20.25 19.1328V17.2422C20.25 16.6262 19.7489 16.125 19.1328 16.125ZM14.0625 14.0625H16.125V16.125H14.0625V14.0625ZM18.875 18.875H17.5V17.5H18.875V18.875Z" fill="#25215B" stroke="#25215B" stroke-width="0.25"/>
<path d="M7.875 8.5625H7.1875C6.80779 8.5625 6.5 8.25467 6.5 7.875V7.1875C6.5 6.80783 6.80779 6.5 7.1875 6.5H7.875C8.25472 6.5 8.5625 6.80783 8.5625 7.1875V7.875C8.5625 8.25467 8.25472 8.5625 7.875 8.5625Z" fill="#25215B" stroke="#25215B" stroke-width="0.25"/>
<path d="M16.8125 8.5625H16.125C15.7453 8.5625 15.4375 8.25467 15.4375 7.875V7.1875C15.4375 6.80783 15.7453 6.5 16.125 6.5H16.8125C17.1922 6.5 17.5 6.80783 17.5 7.1875V7.875C17.5 8.25467 17.1922 8.5625 16.8125 8.5625Z" fill="#25215B" stroke="#25215B" stroke-width="0.25"/>
<path d="M7.875 17.5H7.1875C6.80779 17.5 6.5 17.1922 6.5 16.8125V16.125C6.5 15.7453 6.80779 15.4375 7.1875 15.4375H7.875C8.25472 15.4375 8.5625 15.7453 8.5625 16.125V16.8125C8.5625 17.1922 8.25472 17.5 7.875 17.5Z" fill="#25215B" stroke="#25215B" stroke-width="0.25"/>
</g>
<defs>
<clipPath id="clip0_2305_28525">
<rect width="24" height="24" fill="white"/>
</clipPath>
</defs>
</svg>
