<svg width="14" height="14" viewBox="0 0 14 14" fill="none" xmlns="http://www.w3.org/2000/svg">
<path d="M6.99992 10.9036C7.394 10.9036 7.71346 10.5842 7.71346 10.1901C7.71346 9.79603 7.394 9.47656 6.99992 9.47656C6.60584 9.47656 6.28638 9.79603 6.28638 10.1901C6.28638 10.5842 6.60584 10.9036 6.99992 10.9036Z" fill="#25215B" stroke="#25215B" stroke-width="0.125"/>
<path d="M6.99992 0.270508C3.28093 0.270508 0.270752 3.28018 0.270752 6.99967C0.270752 10.7187 3.28042 13.7288 6.99992 13.7288C10.7189 13.7288 13.7291 10.7192 13.7291 6.99967C13.7291 3.28068 10.7194 0.270508 6.99992 0.270508ZM6.99992 12.5622C3.92566 12.5622 1.43742 10.0743 1.43742 6.99967C1.43742 3.92541 3.92525 1.43717 6.99992 1.43717C10.0742 1.43717 12.5624 3.925 12.5624 6.99967C12.5624 10.0739 10.0746 12.5622 6.99992 12.5622Z" fill="#25215B" stroke="#25215B" stroke-width="0.125"/>
<path d="M6.99984 3.61719C5.81657 3.61719 4.854 4.57975 4.854 5.76302C4.854 6.08519 5.11516 6.34635 5.43734 6.34635C5.75951 6.34635 6.02067 6.08519 6.02067 5.76302C6.02067 5.22316 6.45998 4.78385 6.99984 4.78385C7.53969 4.78385 7.979 5.22316 7.979 5.76302C7.979 6.30288 7.53969 6.74219 6.99984 6.74219C6.67766 6.74219 6.4165 7.00335 6.4165 7.32552V8.6276C6.4165 8.94978 6.67766 9.21094 6.99984 9.21094C7.32201 9.21094 7.58317 8.94978 7.58317 8.6276V7.82828C8.48377 7.57357 9.14567 6.7443 9.14567 5.76302C9.14567 4.57975 8.1831 3.61719 6.99984 3.61719Z" fill="#25215B" stroke="#25215B" stroke-width="0.125"/>
</svg>
