<svg width="14" height="12" viewBox="0 0 14 12" fill="none" xmlns="http://www.w3.org/2000/svg">
<path d="M7.04462 0.166016H7.1225C7.84175 0.16913 11.4861 0.200272 12.4688 0.513763C12.7658 0.609439 13.0365 0.795929 13.2538 1.0546C13.471 1.31326 13.6273 1.63505 13.7069 1.9878C13.7952 2.38226 13.8574 2.9044 13.8994 3.44315L13.9081 3.5511L13.9274 3.821L13.9344 3.92895C13.9913 4.87773 13.9983 5.76631 13.9991 5.96042V6.03828C13.9983 6.23966 13.9904 7.18844 13.9274 8.17666L13.9204 8.28566L13.9125 8.39362C13.8687 8.98738 13.804 9.57699 13.7069 10.0109C13.6275 10.3638 13.4714 10.6857 13.2541 10.9444C13.0367 11.2032 12.7659 11.3895 12.4688 11.4849C11.4537 11.8088 7.59587 11.8316 7.06125 11.8327H6.937C6.66663 11.8327 5.54838 11.8265 4.37587 11.7787L4.22712 11.7725L4.151 11.7683L4.00138 11.7611L3.85175 11.7538C2.8805 11.7029 1.95563 11.6209 1.5295 11.4839C1.23243 11.3886 0.961682 11.2024 0.744384 10.9438C0.527086 10.6853 0.370866 10.3636 0.291375 10.0109C0.19425 9.57803 0.1295 8.98738 0.08575 8.39362L0.07875 8.28462L0.07175 8.17666C0.0285666 7.47328 0.00463738 6.76841 0 6.06319L0 5.93551C0.00175 5.71233 0.00875 4.94105 0.056 4.08985L0.062125 3.98293L0.06475 3.92895L0.07175 3.821L0.091 3.5511L0.09975 3.44315C0.14175 2.9044 0.203875 2.38122 0.29225 1.9878C0.371607 1.63491 0.527767 1.31297 0.745074 1.05426C0.962381 0.795546 1.2332 0.609152 1.53038 0.513763C1.9565 0.378816 2.88137 0.295772 3.85262 0.243869L4.00138 0.236603L4.15188 0.230375L4.22712 0.227261L4.37675 0.219994C5.20949 0.188204 6.04258 0.170555 6.87575 0.167054H7.04462V0.166016ZM5.6 3.49816V8.4995L9.23738 5.99987L5.6 3.49816Z" fill="#25215B"/>
</svg>
